<svg width="256" height="50" viewBox="0 0 256 50" fill="none" xmlns="http://www.w3.org/2000/svg">
<path d="M13.9999 18.9883L6.78504 25L13.9999 31.0117C14.2392 31.2078 14.4372 31.4493 14.5827 31.7224C14.7282 31.9954 14.8182 32.2945 14.8475 32.6025C14.8768 32.9105 14.8448 33.2212 14.7535 33.5167C14.6621 33.8123 14.5131 34.0869 14.3151 34.3246C14.1171 34.5623 13.874 34.7584 13.5998 34.9017C13.3257 35.045 13.0258 35.1326 12.7176 35.1594C12.4094 35.1863 12.099 35.1518 11.8042 35.0581C11.5093 34.9644 11.236 34.8132 10.9999 34.6133L1.62488 26.8008C1.36084 26.5808 1.1484 26.3055 1.00261 25.9943C0.856822 25.6831 0.78125 25.3437 0.78125 25C0.78125 24.6564 0.856822 24.3169 1.00261 24.0057C1.1484 23.6945 1.36084 23.4192 1.62488 23.1992L10.9999 15.3867C11.4781 14.9948 12.0919 14.8077 12.7075 14.8663C13.3231 14.9249 13.8906 15.2243 14.2863 15.6995C14.6821 16.1746 14.8741 16.7868 14.8204 17.4029C14.7667 18.0189 14.4718 18.5888 13.9999 18.9883ZM48.3749 23.1992L38.9999 15.3867C38.7638 15.1868 38.4904 15.0357 38.1956 14.9419C37.9008 14.8482 37.5903 14.8138 37.2821 14.8406C36.9739 14.8675 36.6741 14.955 36.3999 15.0983C36.1257 15.2416 35.8826 15.4378 35.6847 15.6755C35.4867 15.9132 35.3377 16.1877 35.2463 16.4833C35.1549 16.7788 35.123 17.0896 35.1523 17.3975C35.1816 17.7055 35.2716 18.0046 35.417 18.2777C35.5625 18.5507 35.7606 18.7922 35.9999 18.9883L43.2147 25L35.9999 31.0117C35.7606 31.2078 35.5625 31.4493 35.417 31.7224C35.2716 31.9954 35.1816 32.2945 35.1523 32.6025C35.123 32.9105 35.1549 33.2212 35.2463 33.5167C35.3377 33.8123 35.4867 34.0869 35.6847 34.3246C35.8826 34.5623 36.1257 34.7584 36.3999 34.9017C36.6741 35.045 36.9739 35.1326 37.2821 35.1594C37.5903 35.1863 37.9008 35.1518 38.1956 35.0581C38.4904 34.9644 38.7638 34.8132 38.9999 34.6133L48.3749 26.8008C48.6389 26.5808 48.8514 26.3055 48.9972 25.9943C49.1429 25.6831 49.2185 25.3437 49.2185 25C49.2185 24.6564 49.1429 24.3169 48.9972 24.0057C48.8514 23.6945 48.6389 23.4192 48.3749 23.1992ZM32.0507 5.60939C31.7614 5.50418 31.4541 5.45699 31.1466 5.47053C30.839 5.48407 30.5372 5.55806 30.2582 5.68829C29.9793 5.81851 29.7287 6.00242 29.5208 6.2295C29.313 6.45658 29.1519 6.72239 29.0468 7.01174L16.5468 41.3867C16.3349 41.9708 16.3636 42.6151 16.6265 43.178C16.8895 43.7409 17.3652 44.1764 17.9491 44.3887C18.2055 44.4834 18.4766 44.5316 18.7499 44.5313C19.2311 44.5314 19.7007 44.3833 20.0948 44.1073C20.489 43.8312 20.7886 43.4405 20.953 42.9883L33.453 8.6133C33.5582 8.32398 33.6054 8.01678 33.5919 7.70922C33.5783 7.40167 33.5043 7.09979 33.3741 6.82084C33.2439 6.54189 33.06 6.29133 32.8329 6.08346C32.6058 5.8756 32.34 5.71451 32.0507 5.60939Z" fill="#00A3E9"/>
<path d="M84.3274 22.2109H80.2834C80.2095 21.6877 80.0587 21.223 79.831 20.8168C79.6032 20.4044 79.3108 20.0535 78.9538 19.7642C78.5968 19.4749 78.1844 19.2533 77.7166 19.0994C77.255 18.9455 76.7533 18.8686 76.2116 18.8686C75.233 18.8686 74.3804 19.1117 73.6541 19.598C72.9278 20.0781 72.3646 20.7798 71.9645 21.7031C71.5644 22.6203 71.3643 23.7344 71.3643 25.0455C71.3643 26.3935 71.5644 27.526 71.9645 28.4432C72.3707 29.3603 72.937 30.0528 73.6634 30.5206C74.3897 30.9884 75.2299 31.2223 76.1839 31.2223C76.7195 31.2223 77.215 31.1515 77.6705 31.0099C78.1321 30.8684 78.5414 30.6622 78.8984 30.3913C79.2554 30.1143 79.5509 29.7789 79.7848 29.3849C80.0249 28.991 80.1911 28.5417 80.2834 28.0369L84.3274 28.0554C84.2228 28.9233 83.9612 29.7604 83.5426 30.5668C83.1302 31.367 82.5732 32.084 81.8714 32.718C81.1759 33.3459 80.3449 33.8445 79.3786 34.2138C78.4183 34.5769 77.3319 34.7585 76.1193 34.7585C74.4328 34.7585 72.9247 34.3769 71.5952 33.6136C70.2718 32.8504 69.2254 31.7455 68.456 30.299C67.6927 28.8525 67.3111 27.1013 67.3111 25.0455C67.3111 22.9834 67.6989 21.2292 68.4744 19.7827C69.25 18.3362 70.3026 17.2344 71.6321 16.4773C72.9616 15.714 74.4574 15.3324 76.1193 15.3324C77.215 15.3324 78.2306 15.4863 79.1662 15.794C80.108 16.1018 80.942 16.5511 81.6683 17.142C82.3946 17.7268 82.9856 18.4439 83.4411 19.2933C83.9027 20.1428 84.1982 21.1153 84.3274 22.2109ZM96.2148 28.4616V20.3182H100.148V34.5H96.3718V31.924H96.2241C95.904 32.755 95.3716 33.4228 94.6268 33.9276C93.8881 34.4323 92.9864 34.6847 91.9215 34.6847C90.9736 34.6847 90.1396 34.4692 89.4194 34.0384C88.6992 33.6075 88.136 32.995 87.7298 32.201C87.3297 31.407 87.1265 30.456 87.1204 29.348V20.3182H91.0536V28.6463C91.0598 29.4834 91.2844 30.1451 91.7276 30.6314C92.1708 31.1177 92.7648 31.3608 93.5096 31.3608C93.9835 31.3608 94.4267 31.2531 94.8391 31.0376C95.2515 30.8161 95.5839 30.4898 95.8363 30.0589C96.0948 29.6281 96.221 29.0956 96.2148 28.4616ZM115.094 24.3622L111.493 24.5838C111.432 24.276 111.299 23.9991 111.096 23.7528C110.893 23.5005 110.625 23.3004 110.293 23.1527C109.967 22.9988 109.576 22.9219 109.12 22.9219C108.511 22.9219 107.997 23.0511 107.578 23.3097C107.16 23.562 106.95 23.9006 106.95 24.3253C106.95 24.6638 107.086 24.95 107.357 25.1839C107.628 25.4179 108.092 25.6056 108.751 25.7472L111.318 26.2642C112.696 26.5473 113.724 27.0028 114.401 27.6307C115.079 28.2585 115.417 29.0833 115.417 30.1051C115.417 31.0346 115.143 31.8501 114.595 32.5518C114.054 33.2536 113.309 33.8014 112.361 34.1953C111.419 34.5831 110.333 34.777 109.102 34.777C107.224 34.777 105.729 34.3861 104.615 33.6044C103.507 32.8165 102.857 31.7455 102.666 30.3913L106.535 30.1882C106.652 30.7607 106.935 31.1977 107.384 31.4993C107.834 31.7947 108.409 31.9425 109.111 31.9425C109.8 31.9425 110.354 31.8101 110.773 31.5455C111.198 31.2746 111.413 30.9268 111.419 30.5021C111.413 30.1451 111.262 29.8527 110.967 29.625C110.671 29.3911 110.216 29.2126 109.6 29.0895L107.144 28.6001C105.759 28.3232 104.728 27.843 104.051 27.1598C103.38 26.4766 103.045 25.6056 103.045 24.5469C103.045 23.6359 103.291 22.8511 103.784 22.1925C104.282 21.5339 104.981 21.026 105.879 20.669C106.784 20.312 107.843 20.1335 109.056 20.1335C110.847 20.1335 112.256 20.5121 113.284 21.2692C114.318 22.0263 114.922 23.0573 115.094 24.3622ZM125.437 20.3182V23.2727H116.897V20.3182H125.437ZM118.836 16.9205H122.769V30.142C122.769 30.5052 122.824 30.7884 122.935 30.9915C123.046 31.1884 123.2 31.3269 123.397 31.407C123.6 31.487 123.834 31.527 124.098 31.527C124.283 31.527 124.468 31.5116 124.652 31.4808C124.837 31.4439 124.979 31.4162 125.077 31.3977L125.696 34.3246C125.499 34.3861 125.222 34.4569 124.865 34.5369C124.508 34.6231 124.074 34.6754 123.563 34.6939C122.615 34.7308 121.784 34.6046 121.07 34.3153C120.362 34.026 119.811 33.5767 119.417 32.9673C119.023 32.358 118.829 31.5885 118.836 30.6591V16.9205ZM134.255 34.777C132.82 34.777 131.58 34.4723 130.534 33.8629C129.493 33.2474 128.69 32.3918 128.124 31.2962C127.558 30.1944 127.275 28.9171 127.275 27.4645C127.275 25.9995 127.558 24.7192 128.124 23.6236C128.69 22.5218 129.493 21.6662 130.534 21.0568C131.58 20.4413 132.82 20.1335 134.255 20.1335C135.689 20.1335 136.926 20.4413 137.966 21.0568C139.013 21.6662 139.819 22.5218 140.385 23.6236C140.952 24.7192 141.235 25.9995 141.235 27.4645C141.235 28.9171 140.952 30.1944 140.385 31.2962C139.819 32.3918 139.013 33.2474 137.966 33.8629C136.926 34.4723 135.689 34.777 134.255 34.777ZM134.273 31.7301C134.926 31.7301 135.47 31.5455 135.907 31.1761C136.344 30.8007 136.674 30.2898 136.895 29.6435C137.123 28.9972 137.237 28.2616 137.237 27.4368C137.237 26.612 137.123 25.8764 136.895 25.2301C136.674 24.5838 136.344 24.0729 135.907 23.6974C135.47 23.322 134.926 23.1342 134.273 23.1342C133.614 23.1342 133.06 23.322 132.611 23.6974C132.168 24.0729 131.833 24.5838 131.605 25.2301C131.383 25.8764 131.272 26.612 131.272 27.4368C131.272 28.2616 131.383 28.9972 131.605 29.6435C131.833 30.2898 132.168 30.8007 132.611 31.1761C133.06 31.5455 133.614 31.7301 134.273 31.7301ZM143.792 34.5V20.3182H147.541V22.8203H147.707C148.002 21.9893 148.495 21.3338 149.184 20.8537C149.874 20.3736 150.699 20.1335 151.659 20.1335C152.631 20.1335 153.459 20.3767 154.142 20.8629C154.826 21.343 155.281 21.9955 155.509 22.8203H155.657C155.946 22.0078 156.469 21.3584 157.226 20.8722C157.989 20.3797 158.891 20.1335 159.931 20.1335C161.255 20.1335 162.329 20.5552 163.154 21.3984C163.985 22.2356 164.4 23.4235 164.4 24.9624V34.5H160.476V25.7379C160.476 24.95 160.267 24.3591 159.848 23.9652C159.43 23.5713 158.907 23.3743 158.279 23.3743C157.565 23.3743 157.008 23.602 156.608 24.0575C156.208 24.5069 156.007 25.1009 156.007 25.8395V34.5H152.194V25.6548C152.194 24.9593 151.994 24.4053 151.594 23.9929C151.2 23.5805 150.68 23.3743 150.034 23.3743C149.597 23.3743 149.203 23.4851 148.852 23.7067C148.507 23.9221 148.233 24.2268 148.03 24.6207C147.827 25.0085 147.725 25.464 147.725 25.9872V34.5H143.792ZM179.932 34.777C178.48 34.777 177.23 34.4692 176.184 33.8537C175.144 33.232 174.343 32.3703 173.783 31.2685C173.229 30.1667 172.952 28.8987 172.952 27.4645C172.952 26.0118 173.232 24.7377 173.792 23.642C174.359 22.5402 175.162 21.6816 176.202 21.0661C177.242 20.4444 178.48 20.1335 179.914 20.1335C181.151 20.1335 182.234 20.3582 183.164 20.8075C184.093 21.2569 184.829 21.8878 185.371 22.7003C185.912 23.5128 186.211 24.4669 186.266 25.5625H182.555C182.45 24.8546 182.173 24.2853 181.724 23.8544C181.28 23.4174 180.699 23.1989 179.979 23.1989C179.369 23.1989 178.837 23.3651 178.381 23.6974C177.932 24.0237 177.581 24.5007 177.329 25.1286C177.076 25.7564 176.95 26.5166 176.95 27.4091C176.95 28.3139 177.073 29.0833 177.319 29.7173C177.572 30.3513 177.926 30.8345 178.381 31.1669C178.837 31.4993 179.369 31.6655 179.979 31.6655C180.428 31.6655 180.831 31.5732 181.188 31.3885C181.551 31.2038 181.85 30.9361 182.084 30.5852C182.324 30.2282 182.481 29.8004 182.555 29.3018H186.266C186.205 30.3852 185.909 31.3393 185.38 32.1641C184.857 32.9827 184.133 33.6229 183.21 34.0845C182.287 34.5462 181.194 34.777 179.932 34.777ZM195.192 34.777C193.758 34.777 192.518 34.4723 191.471 33.8629C190.431 33.2474 189.628 32.3918 189.061 31.2962C188.495 30.1944 188.212 28.9171 188.212 27.4645C188.212 25.9995 188.495 24.7192 189.061 23.6236C189.628 22.5218 190.431 21.6662 191.471 21.0568C192.518 20.4413 193.758 20.1335 195.192 20.1335C196.626 20.1335 197.864 20.4413 198.904 21.0568C199.95 21.6662 200.757 22.5218 201.323 23.6236C201.889 24.7192 202.172 25.9995 202.172 27.4645C202.172 28.9171 201.889 30.1944 201.323 31.2962C200.757 32.3918 199.95 33.2474 198.904 33.8629C197.864 34.4723 196.626 34.777 195.192 34.777ZM195.211 31.7301C195.863 31.7301 196.408 31.5455 196.845 31.1761C197.282 30.8007 197.611 30.2898 197.833 29.6435C198.06 28.9972 198.174 28.2616 198.174 27.4368C198.174 26.612 198.06 25.8764 197.833 25.2301C197.611 24.5838 197.282 24.0729 196.845 23.6974C196.408 23.322 195.863 23.1342 195.211 23.1342C194.552 23.1342 193.998 23.322 193.549 23.6974C193.105 24.0729 192.77 24.5838 192.542 25.2301C192.321 25.8764 192.21 26.612 192.21 27.4368C192.21 28.2616 192.321 28.9972 192.542 29.6435C192.77 30.2898 193.105 30.8007 193.549 31.1761C193.998 31.5455 194.552 31.7301 195.211 31.7301ZM209.956 34.7308C208.878 34.7308 207.903 34.4538 207.029 33.8999C206.161 33.3397 205.471 32.518 204.961 31.4347C204.456 30.3452 204.203 29.0095 204.203 27.4276C204.203 25.8026 204.465 24.4515 204.988 23.3743C205.511 22.291 206.207 21.4815 207.075 20.946C207.949 20.4044 208.906 20.1335 209.946 20.1335C210.74 20.1335 211.402 20.2689 211.931 20.5398C212.467 20.8045 212.898 21.1368 213.224 21.5369C213.556 21.9309 213.809 22.3187 213.981 22.7003H214.101V15.5909H218.025V34.5H214.147V32.2287H213.981C213.797 32.6226 213.535 33.0135 213.196 33.4013C212.864 33.7829 212.43 34.0999 211.895 34.3523C211.365 34.6046 210.719 34.7308 209.956 34.7308ZM211.202 31.6009C211.836 31.6009 212.372 31.4285 212.809 31.0838C213.252 30.733 213.59 30.2436 213.824 29.6158C214.064 28.9879 214.184 28.2524 214.184 27.4091C214.184 26.5658 214.067 25.8333 213.833 25.2116C213.6 24.59 213.261 24.1098 212.818 23.7713C212.375 23.4328 211.836 23.2635 211.202 23.2635C210.556 23.2635 210.011 23.4389 209.568 23.7898C209.125 24.1406 208.789 24.6269 208.561 25.2486C208.334 25.8703 208.22 26.5904 208.22 27.4091C208.22 28.2339 208.334 28.9633 208.561 29.5973C208.795 30.2251 209.131 30.7176 209.568 31.0746C210.011 31.4254 210.556 31.6009 211.202 31.6009ZM227.722 34.777C226.263 34.777 225.008 34.4815 223.955 33.8906C222.909 33.2936 222.102 32.4503 221.536 31.3608C220.97 30.2652 220.687 28.9695 220.687 27.4737C220.687 26.0149 220.97 24.7346 221.536 23.6328C222.102 22.531 222.899 21.6723 223.927 21.0568C224.961 20.4413 226.174 20.1335 227.565 20.1335C228.501 20.1335 229.372 20.2843 230.178 20.5859C230.991 20.8814 231.698 21.3277 232.302 21.9247C232.911 22.5218 233.385 23.2727 233.724 24.1776C234.062 25.0762 234.231 26.1288 234.231 27.3352V28.4155H222.256V25.978H230.529C230.529 25.4117 230.406 24.91 230.16 24.473C229.913 24.036 229.572 23.6944 229.135 23.4482C228.704 23.1958 228.202 23.0696 227.63 23.0696C227.033 23.0696 226.503 23.2081 226.042 23.4851C225.586 23.7559 225.229 24.1222 224.971 24.5838C224.712 25.0393 224.58 25.5471 224.574 26.1072V28.4247C224.574 29.1264 224.703 29.7327 224.961 30.2436C225.226 30.7545 225.599 31.1484 226.079 31.4254C226.559 31.7024 227.128 31.8409 227.787 31.8409C228.224 31.8409 228.624 31.7794 228.987 31.6562C229.35 31.5331 229.661 31.3485 229.92 31.1023C230.178 30.8561 230.375 30.5545 230.51 30.1974L234.148 30.4375C233.964 31.3116 233.585 32.0748 233.013 32.7273C232.446 33.3736 231.714 33.8783 230.815 34.2415C229.923 34.5985 228.892 34.777 227.722 34.777Z" fill="#292929"/>
</svg>
