<svg xmlns="http://www.w3.org/2000/svg" viewBox="0 0 243.85 63.86"><defs><style>.cls-1{fill:#fff;}</style></defs><g id="Layer_2" data-name="Layer 2"><g id="dark-mode"><g id="GALAC_design" data-name="GALAC design"><path class="cls-1" d="M24.87,6.73A33.25,33.25,0,0,1,37.42,9.08V2A39.59,39.59,0,0,0,24.25,0Q.09,0,.09,20.65q0,21.83,23.75,21.83a35.79,35.79,0,0,0,13.58-2.24v-11H29.11V35a21.9,21.9,0,0,1-5.14.7q-15.25,0-15.25-15.08Q8.72,6.73,24.87,6.73Z"/><path class="cls-1" d="M77,.29H68.1l-19,41.89h8.54L72.36,8.29,79.42,24h-9l-2.86,6.74h14.9l5.12,11.42h8.94Z"/><path class="cls-1" d="M118,35.45V.29h-8.31V42.18h26.13V35.45Z"/><path class="cls-1" d="M175.43.29h-8.94l-19,41.89H156L170.76,8.29,177.82,24h-9l-2.85,6.74h14.9l5.11,11.42h8.94Z"/><path class="cls-1" d="M231.3,6.73a33.25,33.25,0,0,1,12.55,2.35V2a39.6,39.6,0,0,0-13.18-2q-24.15,0-24.15,20.65,0,21.83,24.15,21.83a39.34,39.34,0,0,0,13.18-2.06v-7a33.24,33.24,0,0,1-12.55,2.34q-16.16,0-16.16-15.08Q215.14,6.73,231.3,6.73Z"/><path class="cls-1" d="M4.88,62.94c3.88,0,5.81-2,5.81-6,0-3.56-1.93-5.35-5.81-5.35H1v11.4ZM0,63.76v-13H5q6.84,0,6.84,6.17,0,6.87-6.94,6.87Zm58.33-13v.82H50.18v5.2H58v.82H50.18v5.38h8.28v.82h-9.3v-13ZM96.05,63.31v-1a15.41,15.41,0,0,0,4.84.72q4.38,0,4.38-3.1,0-2.28-2.85-2.28H99.55q-3.9,0-3.9-3.28,0-3.73,5.72-3.74a19,19,0,0,1,4.54.55v.91a16.43,16.43,0,0,0-4.54-.64c-3.13,0-4.69,1-4.69,2.92,0,1.58,1,2.37,2.87,2.37h2.87c2.59,0,3.88,1.07,3.88,3.19q0,3.93-5.41,3.93A20.18,20.18,0,0,1,96.05,63.31Zm49.2-12.59v13h-1v-13Zm49.16,12.53a11.64,11.64,0,0,1-3.74.61q-7.48,0-7.49-6.8,0-6.42,7.33-6.43a14.19,14.19,0,0,1,3.9.55V52a13.5,13.5,0,0,0-3.71-.55q-6.49,0-6.49,5.61,0,6,6.31,6a11.67,11.67,0,0,0,2.87-.4V57.84h1Zm37.79.51v-13h1.32l9.33,11.42V50.72h.93v13H243l-9.82-12v12Z"/></g></g></g></svg>