<svg width="105" height="43" viewBox="0 0 105 43" fill="none" xmlns="http://www.w3.org/2000/svg">
<g clip-path="url(#clip0_361_2)">
<rect width="105" height="43" fill="#1B2C46"/>
<path d="M24.2089 14.1286C25.4569 14.1203 26.6949 14.3537 27.8547 14.816V12.7684C26.6168 12.3557 25.3177 12.1578 24.0135 12.1833C19.3157 12.1833 16.9668 14.1968 16.9668 18.2238C16.9668 22.479 19.2758 24.6075 23.8939 24.6095C25.2452 24.642 26.5901 24.4126 27.8547 23.9337V20.7161H25.431V22.4244C24.9408 22.5505 24.4377 22.6192 23.9318 22.6291C20.9646 22.6291 19.4819 21.1578 19.4839 18.215C19.4839 15.4946 21.0589 14.1325 24.2089 14.1286Z" fill="white"/>
<path d="M39.4108 12.2446H36.8033L31.2471 24.4982H33.7379L38.0458 14.5848L40.105 19.1861H37.48L36.6458 21.1576H40.9917L42.485 24.4982H45.0925L39.4108 12.2446Z" fill="white"/>
<path d="M51.3573 22.5237V12.2446H48.9336V24.4982H56.5548V22.5237H51.3573Z" fill="white"/>
<path d="M68.1072 12.2446H65.4997L59.958 24.4982H62.4459L66.7568 14.5848L68.8159 19.1861H66.1909L65.3334 21.1576H69.6793L71.1668 24.4982H73.7918L68.1072 12.2446Z" fill="white"/>
<path d="M84.4033 14.1286C85.6562 14.1184 86.8993 14.3519 88.0637 14.816V12.7684C86.8248 12.3555 85.5248 12.1576 84.2195 12.1834C79.5237 12.1834 77.1758 14.1969 77.1758 18.2239C77.1758 22.479 79.5237 24.6075 84.2195 24.6095C85.527 24.623 86.8271 24.4123 88.0637 23.9864V21.9388C86.8993 22.403 85.6562 22.6364 84.4033 22.6262C81.263 22.6262 79.6919 21.1549 79.6899 18.2122C79.6899 15.4937 81.2611 14.1325 84.4033 14.1286Z" fill="white"/>
<path d="M18.3755 30.5738C19.5052 30.5738 20.0701 29.9829 20.0701 28.8012C20.0701 27.7598 19.5052 27.2391 18.3755 27.2391H17.238V30.5738H18.3755ZM16.9492 30.8137V27.011H18.4076C19.7376 27.011 20.4026 27.6116 20.4026 28.8129C20.4026 30.1526 19.7288 30.8234 18.3813 30.8254L16.9492 30.8137ZM33.9621 27.011V27.2508H31.5851V28.769H33.8659V29.0118H31.5851V30.5855H34.003V30.8254H31.2876V27.0227L33.9621 27.011ZM44.9638 30.6908V30.3983C45.4201 30.5442 45.8966 30.6163 46.3755 30.6118C47.2301 30.6118 47.6559 30.3193 47.6559 29.705C47.6559 29.2604 47.3788 29.0381 46.8246 29.0381H45.9846C45.2302 29.0381 44.852 28.7173 44.8501 28.0757C44.8501 27.3483 45.4052 26.9846 46.5155 26.9846C46.9616 26.9835 47.4062 27.0365 47.8396 27.1426V27.4088C47.409 27.2854 46.9633 27.2233 46.5155 27.2245C45.6055 27.2245 45.1475 27.517 45.1475 28.0757C45.1475 28.5379 45.4392 28.769 45.9846 28.769H46.8246C47.5771 28.769 47.9534 29.081 47.9534 29.705C47.9534 30.4695 47.4274 30.8517 46.3755 30.8517C45.8958 30.8524 45.4178 30.7944 44.9521 30.6791L44.9638 30.6908ZM59.3138 27.011V30.8137H59.0221V27.011H59.3138ZM73.655 30.6762C73.3034 30.7939 72.9349 30.8532 72.5642 30.8517C71.1059 30.8517 70.3777 30.1887 70.3796 28.8626C70.3796 27.6106 71.0913 26.9846 72.5146 26.9846C72.9002 26.984 73.2841 27.0371 73.655 27.1426V27.3825C73.3034 27.2799 72.9392 27.2268 72.573 27.2245C71.3091 27.2245 70.6771 27.7705 70.6771 28.8626C70.6771 30.0327 71.2906 30.6177 72.5176 30.6177C72.8002 30.6125 73.0813 30.5732 73.3546 30.5007V29.0966H73.6463L73.655 30.6762ZM84.6771 30.8254V27.0227H85.0592L87.7805 30.3603V26.9993H88.0517V30.802H87.7921L84.928 27.2918V30.802L84.6771 30.8254Z" fill="white"/>
<path d="M105 43H0V0H105V43ZM1.75 41.2449H103.25V1.7551H1.75V41.2449Z" fill="white"/>
</g>
<defs>
<clipPath id="clip0_361_2">
<rect width="105" height="43" fill="white"/>
</clipPath>
</defs>
</svg>
