<svg width="182" height="32" viewBox="0 0 182 32" fill="none" xmlns="http://www.w3.org/2000/svg">
<g clip-path="url(#clip0_574_2)">
<path fill-rule="evenodd" clip-rule="evenodd" d="M48.6277 0.842102L33.1122 31.1579H18.537L25.0301 18.5937H24.7402C19.3796 25.5444 11.3885 30.1204 0 31.1579V18.7672C0 18.7672 7.28506 18.3377 11.5688 13.8375H0V0.842102H13.0029V11.5301H13.2944L18.6078 0.842102H28.4409V11.4627H28.7324L34.243 0.842102H48.626H48.6277Z" fill="#146EF5"/>
<path d="M133.241 27.8114H137.429V3.78949H133.241V27.8114Z" fill="black"/>
<path fill-rule="evenodd" clip-rule="evenodd" d="M110.157 27.5655C111.067 27.9444 111.992 28.133 112.933 28.133C114.486 28.133 115.878 27.7558 117.105 26.9996C118.331 26.245 119.319 25.1612 119.958 23.872C120.632 22.533 120.969 21.0156 120.969 19.3179C120.969 17.6219 120.622 16.1044 119.928 14.7655C119.277 13.474 118.272 12.3945 117.029 11.653C115.791 10.9069 114.384 10.5398 112.81 10.5499C111.809 10.5499 110.846 10.7436 109.926 11.1326C108.973 11.524 108.134 12.1504 107.488 12.9533V3.80463H103.285V27.8114H107.457L107.449 25.5697C108.181 26.4406 109.109 27.1235 110.157 27.5655ZM114.451 23.6884C113.767 24.1061 112.985 24.3166 112.103 24.3166C111.236 24.3166 110.437 24.101 109.711 23.6733C108.987 23.2359 108.39 22.6177 107.978 21.8796C107.55 21.089 107.334 20.2014 107.35 19.3027C107.339 18.3427 107.543 17.4838 107.963 16.7276C108.367 15.9873 108.966 15.3721 109.695 14.949C110.422 14.5213 111.226 14.3107 112.105 14.3208C112.983 14.3107 113.767 14.5162 114.451 14.9339C115.147 15.3432 115.678 15.9309 116.047 16.6973C116.424 17.4552 116.615 18.3225 116.615 19.3027C116.615 20.2846 116.424 21.1537 116.047 21.9099C115.678 22.6661 115.147 23.2573 114.451 23.6884Z" fill="black"/>
<path d="M54.6943 5.24634H59.4803L63.7606 20.8708L68.3157 5.24634H72.3045L77.2421 20.5575L81.354 5.24634H85.7405L79.2677 27.8114H75.1424L70.1205 12.8539L65.5082 27.8114H61.3373L54.6943 5.24634Z" fill="black"/>
<path fill-rule="evenodd" clip-rule="evenodd" d="M92.8082 28.2105C91.1399 28.2206 89.6384 27.8518 88.2987 27.1074C86.9838 26.3655 85.8965 25.2788 85.1541 23.9646C84.3958 22.6257 84.0183 21.0964 84.0183 19.3802C84.0183 17.7129 84.4059 16.2072 85.1845 14.8581C85.9318 13.5387 87.024 12.4472 88.3442 11.7002C89.6738 10.9423 91.1568 10.5651 92.7931 10.5651C94.6333 10.5651 96.2443 10.9743 97.6245 11.7912C99.0032 12.5952 100.093 13.8134 100.739 15.2724C101.433 16.7646 101.684 18.4758 101.49 20.4076H88.3509C88.388 21.1773 88.5801 21.8762 88.9273 22.5078C89.3149 23.2017 89.8575 23.744 90.5535 24.1331C91.2494 24.5204 92.0263 24.7141 92.8841 24.7141C93.5396 24.704 94.148 24.5929 94.7108 24.3773C95.272 24.1533 95.7472 23.8518 96.1365 23.4729C96.5359 23.0956 96.8173 22.6644 96.9791 22.1861H101.367C101.107 23.3506 100.558 24.4312 99.7714 25.3289C98.945 26.2589 97.9166 26.9876 96.7651 27.4594C95.5119 27.9793 94.1649 28.2351 92.8082 28.2105ZM88.9424 16.192C88.6971 16.6203 88.5251 17.0865 88.4335 17.5714H97.1425C97.0855 16.9673 96.8881 16.3848 96.5662 15.8703C96.2055 15.2737 95.6848 14.79 95.063 14.4741C94.4004 14.1303 93.6626 13.9566 92.9161 13.9689C92.1062 13.9589 91.3077 14.1597 90.599 14.5516C89.903 14.939 89.3519 15.4863 88.9424 16.192Z" fill="black"/>
<path d="M124.053 10.9187C124.053 9.5478 124.365 8.3318 124.988 7.26907C125.606 6.20265 126.516 5.33576 127.612 4.77138C128.746 4.16843 130.073 3.85517 131.584 3.83496V7.56212C130.88 7.57222 130.277 7.72043 129.774 8.00675C129.281 8.28571 128.885 8.70889 128.64 9.21938C128.394 9.7078 128.263 10.2737 128.243 10.9204H131.493V14.4606H128.241V27.8131H124.053V14.459H121.354V10.9187H124.053Z" fill="black"/>
<path fill-rule="evenodd" clip-rule="evenodd" d="M148.074 28.1802C146.367 28.1802 144.838 27.8063 143.487 27.0602C142.168 26.3247 141.076 25.2432 140.327 23.9326C139.57 22.5937 139.193 21.0762 139.193 19.3802C139.193 17.6741 139.57 16.1499 140.327 14.8109C141.067 13.49 142.161 12.402 143.487 11.6699C144.837 10.9238 146.367 10.5499 148.074 10.5499C149.793 10.5499 151.326 10.9238 152.674 11.6699C154.009 12.3894 155.11 13.4736 155.851 14.7958C156.608 16.1347 156.99 17.664 157 19.3802C156.99 21.0762 156.608 22.5937 155.851 23.9326C155.114 25.252 154.018 26.3363 152.691 27.0602C151.331 27.8063 149.793 28.1802 148.074 28.1802ZM148.074 24.3318C148.974 24.3318 149.771 24.128 150.467 23.7187C151.163 23.2993 151.699 22.7166 152.078 21.9705C152.455 21.2143 152.644 20.3503 152.644 19.3802C152.644 18.3983 152.455 17.5309 152.078 16.7747C151.725 16.0459 151.165 15.4377 150.467 15.0265C149.743 14.5998 148.914 14.3823 148.074 14.3983C147.184 14.3983 146.392 14.6071 145.698 15.0265C145.006 15.4411 144.451 16.0488 144.1 16.7747C143.723 17.5309 143.539 18.3983 143.549 19.3802C143.549 20.3503 143.738 21.216 144.117 21.9705C144.505 22.7166 145.037 23.301 145.711 23.7187C146.397 24.128 147.184 24.3318 148.074 24.3318Z" fill="black"/>
<path d="M161.525 10.9188H156.864L161.909 27.8114H165.991L169.311 17.0223L172.893 27.8114H176.912L181.975 10.9188H177.757L174.885 21.4333L171.712 10.9188H167.634L164.476 21.664L161.525 10.9188Z" fill="black"/>
</g>
<defs>
<clipPath id="clip0_574_2">
<rect width="182" height="32" fill="white"/>
</clipPath>
</defs>
</svg>
