<svg width="239" height="42" viewBox="0 0 239 42" fill="none" xmlns="http://www.w3.org/2000/svg">
<g clip-path="url(#clip0_590_16)">
<path fill-rule="evenodd" clip-rule="evenodd" d="M63.8239 1.10526L43.4598 40.8947H24.3299L32.8519 24.4042H32.4715C25.4358 33.527 14.9474 39.533 0 40.8947V24.6319C0 24.6319 9.56164 24.0682 15.184 18.1617H0V1.10526H17.0663V15.1333H17.4489L24.4228 1.10526H37.3286V15.0448H37.7113L44.9439 1.10526H63.8216H63.8239Z" fill="#146EF5"/>
<path d="M174.879 36.5024H180.375V4.97369H174.879V36.5024Z" fill="white"/>
<path fill-rule="evenodd" clip-rule="evenodd" d="M144.581 36.1797C145.776 36.6771 146.99 36.9246 148.224 36.9246C150.263 36.9246 152.09 36.4295 153.701 35.437C155.309 34.4465 156.607 33.0241 157.445 31.332C158.33 29.5746 158.772 27.583 158.772 25.3548C158.772 23.1288 158.317 21.1371 157.405 19.3797C156.551 17.6847 155.231 16.2678 153.601 15.2946C151.975 14.3154 150.128 13.8335 148.063 13.8468C146.749 13.8468 145.486 14.101 144.278 14.6116C143.027 15.1253 141.926 15.9474 141.078 17.0012V4.99359H135.562V36.5024H141.038L141.027 33.5602C141.987 34.7033 143.205 35.5997 144.581 36.1797ZM150.217 31.0911C149.319 31.6393 148.293 31.9156 147.136 31.9156C145.997 31.9156 144.948 31.6326 143.995 31.0712C143.046 30.4971 142.262 29.6857 141.721 28.717C141.16 27.6793 140.876 26.5144 140.896 25.3349C140.883 24.0749 141.151 22.9475 141.701 21.955C142.231 20.9834 143.018 20.1759 143.975 19.6206C144.929 19.0592 145.984 18.7829 147.138 18.7961C148.29 18.7829 149.319 19.0525 150.217 19.6007C151.13 20.1379 151.827 20.9094 152.312 21.9152C152.807 22.9099 153.057 24.0483 153.057 25.3349C153.057 26.6236 152.807 27.7642 152.312 28.7568C151.827 29.7493 151.13 30.5252 150.217 31.0911Z" fill="white"/>
<path d="M71.7861 6.8858H78.0677L83.6856 27.3929L89.6642 6.8858H94.8995L101.38 26.9817L106.777 6.8858H112.534L104.039 36.5024H98.6242L92.033 16.8708L85.9793 36.5024H80.5051L71.7861 6.8858Z" fill="white"/>
<path fill-rule="evenodd" clip-rule="evenodd" d="M121.811 37.0263C119.622 37.0396 117.651 36.5555 115.892 35.5784C114.167 34.6047 112.74 33.1784 111.765 31.4536C110.77 29.6962 110.274 27.6891 110.274 25.4365C110.274 23.2481 110.783 21.2719 111.805 19.5013C112.786 17.7696 114.219 16.3369 115.952 15.3565C117.697 14.3618 119.644 13.8666 121.791 13.8666C124.207 13.8666 126.321 14.4038 128.133 15.4759C129.942 16.5312 131.372 18.1301 132.22 20.0451C133.131 22.0036 133.461 24.2495 133.206 26.785H115.961C116.01 27.7952 116.262 28.7125 116.717 29.5415C117.226 30.4522 117.938 31.164 118.852 31.6746C119.765 32.1831 120.785 32.4373 121.911 32.4373C122.771 32.424 123.57 32.2781 124.308 31.9952C125.045 31.7012 125.669 31.3055 126.18 30.8081C126.704 30.313 127.073 29.7471 127.285 29.1193H133.045C132.703 30.6477 131.983 32.0659 130.95 33.2441C129.866 34.4648 128.516 35.4213 127.005 36.0404C125.36 36.7229 123.592 37.0585 121.811 37.0263ZM116.737 21.252C116.415 21.8141 116.19 22.426 116.069 23.0624H127.5C127.425 22.2695 127.166 21.505 126.744 20.8298C126.27 20.0467 125.587 19.4119 124.771 18.9973C123.901 18.546 122.933 18.3181 121.953 18.3341C120.89 18.3211 119.842 18.5846 118.912 19.099C117.998 19.6074 117.275 20.3258 116.737 21.252Z" fill="white"/>
<path d="M162.82 14.3308C162.82 12.5315 163.229 10.9355 164.047 9.54062C164.858 8.14095 166.053 7.00315 167.491 6.26241C168.98 5.47104 170.72 5.05988 172.704 5.03336V9.92525C171.78 9.93851 170.988 10.133 170.329 10.5088C169.682 10.875 169.162 11.4304 168.84 12.1004C168.517 12.7415 168.345 13.4842 168.318 14.333H172.585V18.9796H168.316V36.5046H162.82V18.9774H159.276V14.3308H162.82Z" fill="white"/>
<path fill-rule="evenodd" clip-rule="evenodd" d="M194.348 36.9865C192.107 36.9865 190.101 36.4958 188.327 35.5165C186.596 34.5512 185.163 33.1318 184.18 31.4116C183.187 29.6542 182.691 27.6625 182.691 25.4365C182.691 23.1973 183.187 21.1967 184.18 19.4394C185.151 17.7056 186.587 16.2776 188.327 15.3167C190.099 14.3375 192.107 13.8467 194.348 13.8467C196.604 13.8467 198.616 14.3375 200.386 15.3167C202.137 16.2612 203.583 17.6842 204.555 19.4195C205.548 21.1768 206.05 23.184 206.064 25.4365C206.05 27.6625 205.548 29.6542 204.555 31.4116C203.588 33.1433 202.15 34.5664 200.408 35.5165C198.623 36.4958 196.604 36.9865 194.348 36.9865ZM194.348 31.9355C195.529 31.9355 196.575 31.668 197.488 31.1308C198.402 30.5804 199.105 29.8156 199.603 28.8363C200.098 27.8438 200.346 26.7098 200.346 25.4365C200.346 24.1478 200.098 23.0094 199.603 22.0168C199.14 21.0603 198.404 20.262 197.488 19.7223C196.538 19.1623 195.451 18.8768 194.348 18.8978C193.18 18.8978 192.14 19.1719 191.229 19.7223C190.321 20.2665 189.592 21.0641 189.132 22.0168C188.637 23.0094 188.396 24.1478 188.409 25.4365C188.409 26.7098 188.657 27.846 189.154 28.8363C189.663 29.8156 190.362 30.5826 191.247 31.1308C192.147 31.668 193.18 31.9355 194.348 31.9355Z" fill="white"/>
<path d="M212.001 14.3308H205.883L212.505 36.5024H217.862L222.219 22.3418L226.922 36.5024H232.197L238.841 14.3308H233.305L229.536 28.1312L225.371 14.3308H220.018L215.874 28.434L212.001 14.3308Z" fill="white"/>
</g>
<defs>
<clipPath id="clip0_590_16">
<rect width="238.875" height="42" fill="white"/>
</clipPath>
</defs>
</svg>
