<svg width="225" height="42" viewBox="0 0 225 42" fill="none" xmlns="http://www.w3.org/2000/svg">
<g clip-path="url(#clip0_574_45)">
<path d="M32.1562 0H9.84375C4.4072 0 0 4.4072 0 9.84375V32.1562C0 37.5928 4.4072 42 9.84375 42H32.1562C37.5928 42 42 37.5928 42 32.1562V9.84375C42 4.4072 37.5928 0 32.1562 0Z" fill="#0073AA"/>
<path d="M6.92579 20.999C6.92579 26.5697 10.1632 31.384 14.8577 33.6654L8.14428 15.2714C7.33951 17.0736 6.92429 19.0253 6.92579 20.999ZM30.5006 20.2888C30.5006 18.5495 29.8758 17.345 29.34 16.4074C28.6265 15.2481 27.9578 14.2664 27.9578 13.1071C27.9578 11.8133 28.939 10.6091 30.3211 10.6091C30.3836 10.6091 30.4427 10.6168 30.5035 10.6202C27.9996 8.32632 24.6637 6.92572 20.9996 6.92572C16.0829 6.92572 11.7571 9.44834 9.24071 13.2694C9.5708 13.2792 9.88203 13.2863 10.1463 13.2863C11.6185 13.2863 13.8971 13.1074 13.8971 13.1074C14.6558 13.0628 14.7453 14.1771 13.9874 14.2669C13.9874 14.2669 13.225 14.3566 12.3766 14.4011L17.5016 29.6454L20.5815 20.4082L18.3888 14.4006C17.631 14.3561 16.9131 14.2664 16.9131 14.2664C16.1546 14.2219 16.2436 13.0623 17.002 13.1071C17.002 13.1071 19.3261 13.2856 20.709 13.2856C22.181 13.2856 24.4598 13.1071 24.4598 13.1071C25.2191 13.0623 25.3082 14.1766 24.55 14.2664C24.55 14.2664 23.786 14.3561 22.9393 14.4006L28.0254 29.5294L29.4291 24.8386C30.0376 22.8918 30.5006 21.4937 30.5006 20.2888Z" fill="white"/>
<path d="M21.2466 22.2302L17.0239 34.5004C18.3149 34.8807 19.6538 35.0738 20.9997 35.0738C22.5914 35.0744 24.1717 34.8046 25.6731 34.276C25.6341 34.2144 25.6006 34.1495 25.5731 34.082L21.2466 22.2302ZM33.3488 14.2469C33.4128 14.7266 33.4445 15.21 33.4436 15.6939C33.4436 17.1221 33.1769 18.7276 32.3735 20.7351L28.0745 33.1643C32.2586 30.7243 35.0729 26.1915 35.0729 20.9994C35.0731 18.5524 34.4482 16.2514 33.3488 14.2469Z" fill="white"/>
<path d="M20.9997 4.59375C11.9536 4.59375 4.59375 11.9531 4.59375 20.999C4.59375 30.0461 11.9536 37.4051 20.9997 37.4051C30.0453 37.4051 37.4062 30.0461 37.4062 20.999C37.4059 11.9531 30.0453 4.59375 20.9997 4.59375ZM20.9997 36.6532C12.3683 36.6532 5.34598 29.6307 5.34598 20.999C5.34598 12.3679 12.3682 5.34598 20.9997 5.34598C29.6305 5.34598 36.6524 12.3679 36.6524 20.999C36.6524 29.6307 29.6305 36.6532 20.9997 36.6532Z" fill="white"/>
</g>
<path d="M65.0344 32.5L58.5835 9.95454H63.7905L67.5224 25.6197H67.7095L71.8267 9.95454H76.2852L80.3913 25.6527H80.5895L84.3214 9.95454H89.5284L83.0774 32.5H78.4318L74.1385 17.7596H73.9624L69.68 32.5H65.0344ZM97.8151 32.8303C96.1051 32.8303 94.6263 32.467 93.3786 31.7404C92.1383 31.0065 91.1806 29.9864 90.5054 28.68C89.8302 27.3664 89.4926 25.8435 89.4926 24.1115C89.4926 22.3648 89.8302 20.8383 90.5054 19.532C91.1806 18.2183 92.1383 17.1982 93.3786 16.4716C94.6263 15.7377 96.1051 15.3707 97.8151 15.3707C99.5251 15.3707 101 15.7377 102.241 16.4716C103.488 17.1982 104.45 18.2183 105.125 19.532C105.8 20.8383 106.138 22.3648 106.138 24.1115C106.138 25.8435 105.8 27.3664 105.125 28.68C104.45 29.9864 103.488 31.0065 102.241 31.7404C101 32.467 99.5251 32.8303 97.8151 32.8303ZM97.8371 29.1974C98.615 29.1974 99.2645 28.9773 99.7856 28.5369C100.307 28.0893 100.699 27.4801 100.964 26.7095C101.235 25.9389 101.371 25.0619 101.371 24.0785C101.371 23.0951 101.235 22.218 100.964 21.4474C100.699 20.6768 100.307 20.0677 99.7856 19.62C99.2645 19.1723 98.615 18.9485 97.8371 18.9485C97.0518 18.9485 96.3913 19.1723 95.8556 19.62C95.3271 20.0677 94.9272 20.6768 94.6556 21.4474C94.3914 22.218 94.2593 23.0951 94.2593 24.0785C94.2593 25.0619 94.3914 25.9389 94.6556 26.7095C94.9272 27.4801 95.3271 28.0893 95.8556 28.5369C96.3913 28.9773 97.0518 29.1974 97.8371 29.1974ZM109.187 32.5V15.5909H113.733V18.5412H113.91C114.218 17.4917 114.735 16.6991 115.462 16.1634C116.188 15.6203 117.025 15.3487 117.972 15.3487C118.207 15.3487 118.46 15.3634 118.731 15.3928C119.003 15.4221 119.241 15.4625 119.447 15.5138V19.6751C119.227 19.609 118.922 19.5503 118.533 19.4989C118.144 19.4476 117.788 19.4219 117.465 19.4219C116.775 19.4219 116.159 19.5723 115.616 19.8732C115.08 20.1668 114.654 20.5778 114.339 21.1062C114.031 21.6346 113.877 22.2437 113.877 22.9336V32.5H109.187ZM127.315 32.7752C126.031 32.7752 124.868 32.445 123.825 31.7844C122.791 31.1166 121.969 30.1368 121.36 28.8452C120.758 27.5462 120.457 25.9536 120.457 24.0675C120.457 22.13 120.769 20.5191 121.393 19.2347C122.016 17.9431 122.846 16.978 123.881 16.3395C124.923 15.6937 126.064 15.3707 127.304 15.3707C128.251 15.3707 129.04 15.5322 129.671 15.8551C130.309 16.1707 130.823 16.567 131.212 17.044C131.608 17.5137 131.909 17.9761 132.115 18.4311H132.258V9.95454H136.937V32.5H132.313V29.7919H132.115C131.895 30.2616 131.583 30.7276 131.179 31.19C130.783 31.645 130.265 32.023 129.627 32.3239C128.996 32.6248 128.225 32.7752 127.315 32.7752ZM128.801 29.0433C129.557 29.0433 130.196 28.8378 130.717 28.4268C131.245 28.0085 131.649 27.4251 131.928 26.6765C132.214 25.9279 132.357 25.0509 132.357 24.0455C132.357 23.04 132.218 22.1667 131.939 21.4254C131.66 20.6842 131.256 20.1117 130.728 19.7081C130.199 19.3045 129.557 19.1026 128.801 19.1026C128.031 19.1026 127.381 19.3118 126.853 19.7301C126.324 20.1484 125.924 20.7282 125.653 21.4695C125.381 22.2107 125.246 23.0694 125.246 24.0455C125.246 25.0289 125.381 25.8986 125.653 26.6545C125.932 27.4031 126.332 27.9902 126.853 28.4158C127.381 28.8342 128.031 29.0433 128.801 29.0433ZM140.88 32.5V9.95454H149.775C151.485 9.95454 152.942 10.2811 154.146 10.9343C155.349 11.5801 156.267 12.4792 156.898 13.6314C157.536 14.7763 157.856 16.0973 157.856 17.5945C157.856 19.0916 157.533 20.4126 156.887 21.5575C156.241 22.7024 155.305 23.5941 154.08 24.2326C152.861 24.8711 151.386 25.1903 149.654 25.1903H143.985V21.3704H148.884C149.801 21.3704 150.557 21.2126 151.151 20.897C151.753 20.5741 152.201 20.1301 152.494 19.565C152.795 18.9925 152.946 18.3357 152.946 17.5945C152.946 16.8459 152.795 16.1927 152.494 15.6349C152.201 15.0698 151.753 14.6332 151.151 14.3249C150.55 14.0094 149.786 13.8516 148.862 13.8516H145.647V32.5H140.88ZM160.864 32.5V15.5909H165.41V18.5412H165.586C165.895 17.4917 166.412 16.6991 167.138 16.1634C167.865 15.6203 168.702 15.3487 169.648 15.3487C169.883 15.3487 170.136 15.3634 170.408 15.3928C170.68 15.4221 170.918 15.4625 171.124 15.5138V19.6751C170.903 19.609 170.599 19.5503 170.21 19.4989C169.821 19.4476 169.465 19.4219 169.142 19.4219C168.452 19.4219 167.836 19.5723 167.293 19.8732C166.757 20.1668 166.331 20.5778 166.016 21.1062C165.707 21.6346 165.553 22.2437 165.553 22.9336V32.5H160.864ZM180.467 32.8303C178.728 32.8303 177.231 32.478 175.976 31.7734C174.728 31.0616 173.767 30.0561 173.091 28.7571C172.416 27.4508 172.079 25.9059 172.079 24.1225C172.079 22.3832 172.416 20.8567 173.091 19.543C173.767 18.2293 174.717 17.2055 175.943 16.4716C177.176 15.7377 178.621 15.3707 180.28 15.3707C181.395 15.3707 182.434 15.5505 183.395 15.9102C184.364 16.2624 185.208 16.7945 185.927 17.5064C186.654 18.2183 187.219 19.1136 187.623 20.1925C188.026 21.264 188.228 22.5189 188.228 23.9574V25.2454H173.95V22.3391H183.814C183.814 21.6639 183.667 21.0658 183.373 20.5447C183.08 20.0237 182.672 19.6164 182.151 19.3228C181.638 19.0219 181.04 18.8714 180.357 18.8714C179.645 18.8714 179.014 19.0366 178.464 19.3668C177.92 19.6897 177.495 20.1264 177.187 20.6768C176.878 21.2199 176.72 21.8254 176.713 22.4933V25.2564C176.713 26.093 176.867 26.8159 177.176 27.4251C177.491 28.0342 177.935 28.5039 178.508 28.8342C179.08 29.1644 179.759 29.3295 180.544 29.3295C181.065 29.3295 181.542 29.2562 181.975 29.1094C182.408 28.9626 182.779 28.7424 183.087 28.4489C183.395 28.1553 183.63 27.7957 183.792 27.37L188.129 27.6562C187.909 28.6984 187.457 29.6084 186.775 30.3864C186.1 31.157 185.226 31.7588 184.155 32.1918C183.091 32.6174 181.861 32.8303 180.467 32.8303ZM205.357 20.4126L201.064 20.6768C200.991 20.3099 200.833 19.9796 200.591 19.6861C200.348 19.3852 200.029 19.1467 199.633 18.9705C199.244 18.787 198.778 18.6953 198.235 18.6953C197.508 18.6953 196.895 18.8494 196.396 19.1577C195.897 19.4586 195.648 19.8622 195.648 20.3686C195.648 20.7723 195.809 21.1135 196.132 21.3924C196.455 21.6713 197.009 21.8951 197.794 22.0639L200.855 22.6804C202.499 23.018 203.724 23.5611 204.532 24.3097C205.339 25.0582 205.743 26.0417 205.743 27.2599C205.743 28.3681 205.416 29.3406 204.763 30.1772C204.117 31.0138 203.229 31.667 202.099 32.1367C200.976 32.5991 199.681 32.8303 198.213 32.8303C195.974 32.8303 194.191 32.3642 192.863 31.4322C191.542 30.4928 190.767 29.2158 190.54 27.6012L195.152 27.359C195.292 28.0415 195.629 28.5626 196.165 28.9222C196.701 29.2745 197.387 29.4506 198.224 29.4506C199.046 29.4506 199.706 29.2929 200.205 28.9773C200.712 28.6544 200.969 28.2397 200.976 27.7333C200.969 27.3076 200.789 26.959 200.437 26.6875C200.084 26.4086 199.541 26.1958 198.807 26.049L195.879 25.4656C194.228 25.1353 192.998 24.5629 192.191 23.7482C191.391 22.9336 190.991 21.8951 190.991 20.6328C190.991 19.5466 191.285 18.6109 191.872 17.8256C192.466 17.0404 193.299 16.4349 194.371 16.0092C195.45 15.5836 196.712 15.3707 198.158 15.3707C200.293 15.3707 201.974 15.8221 203.2 16.7248C204.433 17.6275 205.152 18.8568 205.357 20.4126ZM222.765 20.4126L218.471 20.6768C218.398 20.3099 218.24 19.9796 217.998 19.6861C217.756 19.3852 217.436 19.1467 217.04 18.9705C216.651 18.787 216.185 18.6953 215.642 18.6953C214.915 18.6953 214.303 18.8494 213.804 19.1577C213.305 19.4586 213.055 19.8622 213.055 20.3686C213.055 20.7723 213.217 21.1135 213.539 21.3924C213.862 21.6713 214.416 21.8951 215.202 22.0639L218.262 22.6804C219.906 23.018 221.132 23.5611 221.939 24.3097C222.746 25.0582 223.15 26.0417 223.15 27.2599C223.15 28.3681 222.823 29.3406 222.17 30.1772C221.524 31.0138 220.636 31.667 219.506 32.1367C218.383 32.5991 217.088 32.8303 215.62 32.8303C213.382 32.8303 211.598 32.3642 210.27 31.4322C208.949 30.4928 208.175 29.2158 207.947 27.6012L212.56 27.359C212.699 28.0415 213.037 28.5626 213.572 28.9222C214.108 29.2745 214.794 29.4506 215.631 29.4506C216.453 29.4506 217.114 29.2929 217.613 28.9773C218.119 28.6544 218.376 28.2397 218.383 27.7333C218.376 27.3076 218.196 26.959 217.844 26.6875C217.491 26.4086 216.948 26.1958 216.214 26.049L213.286 25.4656C211.635 25.1353 210.406 24.5629 209.598 23.7482C208.798 22.9336 208.398 21.8951 208.398 20.6328C208.398 19.5466 208.692 18.6109 209.279 17.8256C209.874 17.0404 210.707 16.4349 211.778 16.0092C212.857 15.5836 214.119 15.3707 215.565 15.3707C217.701 15.3707 219.381 15.8221 220.607 16.7248C221.84 17.6275 222.559 18.8568 222.765 20.4126Z" fill="#425566"/>
<defs>
<clipPath id="clip0_574_45">
<rect width="42" height="42" fill="white"/>
</clipPath>
</defs>
</svg>
