<svg width="21" height="21" viewBox="0 0 21 21" fill="none" xmlns="http://www.w3.org/2000/svg">
<path d="M15.6939 13H14.0273V14.6667H15.6939M15.6939 9.66667H14.0273V11.3333H15.6939M17.3606 16.3333H10.6939V14.6667H12.3606V13H10.6939V11.3333H12.3606V9.66667H10.6939V8H17.3606M9.02726 6.33333H7.36059V4.66667H9.02726M9.02726 9.66667H7.36059V8H9.02726M9.02726 13H7.36059V11.3333H9.02726M9.02726 16.3333H7.36059V14.6667H9.02726M5.69393 6.33333H4.02726V4.66667H5.69393M5.69393 9.66667H4.02726V8H5.69393M5.69393 13H4.02726V11.3333H5.69393M5.69393 16.3333H4.02726V14.6667H5.69393M10.6939 6.33333V3H2.3606V18H19.0273V6.33333H10.6939Z" fill="white"/>
</svg>
