<svg width="51" height="50" viewBox="0 0 51 50" fill="none" xmlns="http://www.w3.org/2000/svg">
<g clip-path="url(#clip0_254_8)">
<path d="M48.8615 44.7361L42.0977 38.0139V12.1528L38.9032 6.27779C38.6676 5.82987 38.314 5.45485 37.8808 5.19323C37.4475 4.9316 36.951 4.79332 36.4449 4.79332C35.9388 4.79332 35.4423 4.9316 35.009 5.19323C34.5757 5.45485 34.2222 5.82987 33.9865 6.27779L30.9865 12.1667V26.9583L5.58376 1.68057C5.3895 1.4847 5.1413 1.35111 4.87082 1.29685C4.60034 1.24258 4.31982 1.2701 4.06504 1.37589C3.81026 1.48167 3.59275 1.66094 3.44025 1.89083C3.28775 2.12072 3.20716 2.39081 3.20876 2.66668V13.8889H6.22265V16.1111H3.20876V25H6.22265V27.2222H3.20876V36.4583H6.22265V38.6806H3.20876V45.7222C3.20876 46.0906 3.35509 46.4439 3.61556 46.7043C3.87603 46.9648 4.2293 47.1111 4.59765 47.1111H47.8754C48.1513 47.1127 48.4214 47.0321 48.6513 46.8796C48.8812 46.7271 49.0604 46.5096 49.1662 46.2548C49.272 46.0001 49.2995 45.7196 49.2453 45.4491C49.191 45.1786 49.0574 44.9304 48.8615 44.7361ZM14.3199 36.1111V23.5278L26.9171 36.1111H14.3199ZM39.3199 39.0417H33.7643V35.6667H39.3199V39.0417ZM39.3199 33.4861H33.7643V12.8472L36.4588 7.61112L39.3199 12.8611V33.4861Z" fill="#00A3E9"/>
</g>
<defs>
<clipPath id="clip0_254_8">
<rect width="50" height="50" fill="white" transform="translate(0.430908)"/>
</clipPath>
</defs>
</svg>
