<svg width="24" height="24" viewBox="0 0 24 24" fill="none" xmlns="http://www.w3.org/2000/svg">
<path d="M17.12 12.8892V11.1108L15.7917 12L17.12 12.8892ZM18.1833 13.8842C18.1832 13.9073 18.1815 13.9304 18.1783 13.9533L18.1742 13.9767L18.165 14.0208L18.1567 14.0467C18.1527 14.06 18.148 14.0731 18.1425 14.0858L18.1308 14.1108C18.1254 14.123 18.1195 14.1349 18.1133 14.1467L18.0975 14.1717C18.0785 14.2019 18.0561 14.2298 18.0308 14.255L18.0092 14.2758C17.9995 14.2846 17.9895 14.2929 17.9792 14.3008L17.955 14.3192L17.9467 14.3258L12.295 18.0942C12.2077 18.1525 12.105 18.1837 12 18.1837C11.895 18.1837 11.7923 18.1525 11.705 18.0942L6.05333 14.325L6.045 14.3183C6.02596 14.3052 6.00786 14.2907 5.99083 14.275L5.96917 14.2542L5.9425 14.2258L5.925 14.2025C5.90309 14.1741 5.88437 14.1433 5.86917 14.1108L5.8575 14.085C5.85227 14.0721 5.84755 14.0591 5.84333 14.0458L5.835 14.0208C5.83167 14.0058 5.82833 13.9908 5.82667 13.9758L5.82167 13.9525C5.81847 13.9296 5.8168 13.9065 5.81667 13.8833V10.1158C5.81667 10.0927 5.81835 10.0696 5.82167 10.0467L5.82583 10.0242L5.835 9.97917L5.84333 9.95417C5.86309 9.88732 5.89722 9.8256 5.94333 9.77333L5.96917 9.745L5.99083 9.72417C6.0079 9.70852 6.02599 9.69405 6.045 9.68083L6.05333 9.67417L11.705 5.90667C11.7924 5.84841 11.895 5.81732 12 5.81732C12.105 5.81732 12.2076 5.84841 12.295 5.90667L17.9467 9.67417L17.955 9.68083L17.98 9.69917L18.0092 9.72417C18.0175 9.73083 18.0233 9.7375 18.0308 9.745C18.0563 9.77006 18.0786 9.79803 18.0975 9.82833L18.1133 9.85333C18.1196 9.86505 18.1255 9.87701 18.1308 9.88917L18.1425 9.91417C18.1483 9.9275 18.1525 9.94083 18.1567 9.95333L18.165 9.97917C18.1683 9.99417 18.1717 10.0092 18.1733 10.0242L18.1783 10.0467C18.1815 10.0696 18.1832 10.0927 18.1833 10.1158V13.8842ZM12 2C6.4775 2 2 6.47667 2 12C2 17.5225 6.4775 22 12 22C17.5233 22 22 17.5233 22 12C22 6.4775 17.5233 2 12 2ZM12 10.7433L10.1208 12L12 13.2583L13.8792 12L12 10.7433ZM12.5317 14.18V16.6592L16.695 13.8842L14.835 12.64L12.5317 14.18ZM7.305 13.8833L11.4683 16.6583V14.18L9.165 12.6392L7.305 13.8833ZM16.695 10.1167L12.5317 7.34167V9.82L14.835 11.3617L16.695 10.1167ZM11.4683 9.82V7.34167L7.305 10.1167L9.165 11.3608L11.4683 9.82ZM6.88 11.1108V12.8892L8.20833 12L6.88 11.1108Z" fill="white"/>
</svg>
