<svg width="51" height="50" viewBox="0 0 51 50" fill="none" xmlns="http://www.w3.org/2000/svg">
<path d="M14.4308 18.9883L7.21595 25L14.4308 31.0117C14.6701 31.2078 14.8682 31.4493 15.0136 31.7224C15.1591 31.9954 15.2491 32.2945 15.2784 32.6025C15.3077 32.9105 15.2757 33.2212 15.1844 33.5167C15.093 33.8123 14.944 34.0869 14.746 34.3246C14.548 34.5623 14.3049 34.7584 14.0308 34.9017C13.7566 35.045 13.4567 35.1326 13.1485 35.1594C12.8404 35.1863 12.5299 35.1518 12.2351 35.0581C11.9402 34.9644 11.6669 34.8132 11.4308 34.6133L2.05579 26.8008C1.79175 26.5808 1.57931 26.3055 1.43352 25.9943C1.28773 25.6831 1.21216 25.3437 1.21216 25C1.21216 24.6564 1.28773 24.3169 1.43352 24.0057C1.57931 23.6945 1.79175 23.4192 2.05579 23.1992L11.4308 15.3867C11.9091 14.9948 12.5228 14.8077 13.1384 14.8663C13.754 14.9249 14.3215 15.2243 14.7172 15.6995C15.113 16.1746 15.305 16.7868 15.2513 17.4029C15.1977 18.0189 14.9027 18.5888 14.4308 18.9883ZM48.8058 23.1992L39.4308 15.3867C39.1947 15.1868 38.9213 15.0357 38.6265 14.9419C38.3317 14.8482 38.0212 14.8138 37.713 14.8406C37.4048 14.8675 37.105 14.955 36.8308 15.0983C36.5567 15.2416 36.3136 15.4378 36.1156 15.6755C35.9176 15.9132 35.7686 16.1877 35.6772 16.4833C35.5858 16.7788 35.5539 17.0896 35.5832 17.3975C35.6125 17.7055 35.7025 18.0046 35.848 18.2777C35.9934 18.5507 36.1915 18.7922 36.4308 18.9883L43.6456 25L36.4308 31.0117C36.1915 31.2078 35.9934 31.4493 35.848 31.7224C35.7025 31.9954 35.6125 32.2945 35.5832 32.6025C35.5539 32.9105 35.5858 33.2212 35.6772 33.5167C35.7686 33.8123 35.9176 34.0869 36.1156 34.3246C36.3136 34.5623 36.5567 34.7584 36.8308 34.9017C37.105 35.045 37.4048 35.1326 37.713 35.1594C38.0212 35.1863 38.3317 35.1518 38.6265 35.0581C38.9213 34.9644 39.1947 34.8132 39.4308 34.6133L48.8058 26.8008C49.0698 26.5808 49.2823 26.3055 49.4281 25.9943C49.5739 25.6831 49.6494 25.3437 49.6494 25C49.6494 24.6564 49.5739 24.3169 49.4281 24.0057C49.2823 23.6945 49.0698 23.4192 48.8058 23.1992ZM32.4816 5.60939C32.1923 5.50418 31.8851 5.45699 31.5775 5.47053C31.2699 5.48407 30.9681 5.55806 30.6891 5.68829C30.4102 5.81851 30.1596 6.00242 29.9517 6.2295C29.7439 6.45658 29.5828 6.72239 29.4777 7.01174L16.9777 41.3867C16.7658 41.9708 16.7945 42.6151 17.0574 43.178C17.3204 43.7409 17.7961 44.1764 18.38 44.3887C18.6364 44.4834 18.9075 44.5316 19.1808 44.5313C19.662 44.5314 20.1316 44.3833 20.5257 44.1073C20.9199 43.8312 21.2195 43.4405 21.3839 42.9883L33.8839 8.6133C33.9891 8.32398 34.0363 8.01678 34.0228 7.70922C34.0092 7.40167 33.9352 7.09979 33.805 6.82084C33.6748 6.54189 33.4909 6.29133 33.2638 6.08346C33.0367 5.8756 32.7709 5.71451 32.4816 5.60939Z" fill="#00A3E9"/>
</svg>
