<svg width="24" height="24" viewBox="0 0 24 24" fill="none" xmlns="http://www.w3.org/2000/svg">
<path d="M0 9.375H24V14.625H0V9.375Z" fill="#E6E7E8"/>
<path d="M20.25 3.75H3.75C1.26488 3.75 0 5.59688 0 7.875V9.375H24V7.875C24 5.59688 22.7351 3.75 20.25 3.75Z" fill="#EC1C24"/>
<path d="M0 16.125C0 18.4031 1.26488 20.25 3.75 20.25H20.25C22.7351 20.25 24 18.4031 24 16.125V14.625H0V16.125Z" fill="#1B75BB"/>
<path fill-rule="evenodd" clip-rule="evenodd" d="M15.2062 13.4329C15.2137 14.0085 15.0584 14.5403 14.7817 15.0405C14.7581 15.0844 14.7367 15.1275 14.7138 15.1718C14.5964 15.3184 14.5061 15.486 14.3651 15.6143C14.3294 15.6165 14.3246 15.5922 14.3219 15.5652C14.3279 15.4984 14.3711 15.4515 14.4086 15.4009C14.8721 14.7975 15.1008 14.1177 15.0974 13.3553C15.0922 12.1755 15.0963 10.9962 15.0963 9.81753C15.0963 9.77141 15.0929 9.72603 15.0963 9.68216C15.1042 9.57528 15.0641 9.51866 14.9497 9.53066C14.9186 9.53291 14.8871 9.53066 14.8552 9.53066H8.7622C8.60995 9.53366 8.6047 9.53741 8.60395 9.69341C8.60207 10.5795 8.60395 11.4672 8.60395 12.3544C8.60395 12.6912 8.60545 13.029 8.60282 13.3665C8.5987 14.124 8.83045 14.7998 9.2902 15.3998C9.32845 15.4497 9.3712 15.4973 9.37832 15.564C9.3757 15.591 9.37082 15.6154 9.33595 15.6132C9.1957 15.4857 9.1042 15.3188 8.9872 15.1722C8.77795 14.7987 8.6122 14.409 8.53945 13.9819C8.50695 13.7868 8.49052 13.5894 8.49032 13.3917C8.48957 12.0885 8.49032 10.7843 8.49032 9.48116C8.49032 9.46278 8.49295 9.44366 8.4937 9.42678C8.54057 9.39903 8.59045 9.41216 8.63995 9.41216H15.0562C15.2332 9.41216 15.2141 9.39378 15.2141 9.57191C15.2148 10.8098 15.2148 12.0484 15.2141 13.2867C15.2144 13.335 15.2219 13.3845 15.2062 13.4329Z" fill="#FE0505"/>
<path fill-rule="evenodd" clip-rule="evenodd" d="M9.33789 15.6128C9.34764 15.6027 9.35702 15.5914 9.36602 15.5813C9.44702 15.5712 9.48714 15.6342 9.53177 15.681C10.059 16.2237 10.6991 16.5484 11.448 16.6339C12.456 16.749 13.3418 16.4663 14.0843 15.7665C14.1593 15.6957 14.2095 15.5865 14.3351 15.582C14.3453 15.5922 14.3554 15.6034 14.3651 15.6143C13.8844 16.1783 13.2754 16.5417 12.5531 16.6838C11.3093 16.9298 10.2443 16.5739 9.36714 15.6578C9.35477 15.645 9.34839 15.6282 9.33827 15.6128" fill="#FA0406"/>
<path fill-rule="evenodd" clip-rule="evenodd" d="M15.8775 7.58475L15.8423 7.66763C15.6086 8.19713 15.372 8.72588 15.1444 9.25913C15.102 9.35738 15.06 9.35213 14.976 9.31538C13.8776 8.83575 12.7279 8.62688 11.532 8.673C10.557 8.712 9.61875 8.92275 8.72325 9.31688C8.63438 9.35625 8.59838 9.34988 8.5575 9.25538C8.33054 8.72738 8.09929 8.20124 7.86375 7.677C7.83375 7.6095 7.83375 7.55775 7.87538 7.4925C8.0439 7.23266 8.20681 6.96923 8.364 6.70238C8.41313 6.61725 8.45813 6.62025 8.535 6.6495C8.79038 6.74925 9.04763 6.83925 9.30225 6.94088C9.38663 6.97388 9.43538 6.96713 9.49575 6.894C9.6735 6.67875 9.864 6.47438 10.0429 6.26063C10.0984 6.19238 10.1396 6.19313 10.2086 6.23438C10.449 6.37725 10.6939 6.50888 10.9324 6.6525C11.0051 6.69563 11.0509 6.69863 11.1184 6.64163C11.3336 6.45713 11.5579 6.2835 11.7739 6.1005C11.8358 6.04688 11.8714 6.05063 11.9314 6.10125C12.144 6.282 12.3641 6.45225 12.5764 6.6345C12.6446 6.69225 12.6923 6.70275 12.7736 6.65288C13.0148 6.5055 13.2649 6.37238 13.5083 6.228C13.5709 6.19125 13.605 6.19575 13.6538 6.252C13.836 6.468 14.0273 6.67838 14.2095 6.89513C14.2639 6.95963 14.3074 6.978 14.3903 6.94425C14.6573 6.83888 14.9291 6.74513 15.1976 6.64163C15.2591 6.61763 15.2899 6.624 15.3251 6.68325C15.4954 6.96375 15.6698 7.2405 15.843 7.52025C15.8565 7.54125 15.8674 7.56563 15.8775 7.58475Z" fill="#FEFDFE"/>
<path fill-rule="evenodd" clip-rule="evenodd" d="M15.2063 13.4329C15.2036 13.3752 15.198 13.3163 15.198 13.2578C15.1973 12.0289 15.1961 10.7997 15.1988 9.5708C15.1999 9.46542 15.1796 9.4223 15.0604 9.4223C12.8723 9.4268 10.6841 9.4253 8.49602 9.4268C8.48702 9.41837 8.47764 9.41036 8.4679 9.4028C8.54365 9.40055 8.62015 9.39905 8.69627 9.39905H15.1013C15.1463 9.39905 15.1901 9.40055 15.2351 9.4028C15.207 9.45755 15.2186 9.51792 15.2186 9.57492C15.2179 10.8083 15.2179 12.0402 15.2179 13.2735C15.2179 13.3268 15.2104 13.3797 15.2063 13.4329Z" fill="#FE2D2D"/>
<path fill-rule="evenodd" clip-rule="evenodd" d="M14.3362 15.582C13.9717 15.9701 13.5551 16.2798 13.0564 16.4778C11.8282 16.9642 10.4051 16.6575 9.49236 15.7031C9.45148 15.6615 9.40874 15.6217 9.36711 15.5816C9.00261 15.1368 8.73823 14.6426 8.62423 14.0741C8.57924 13.8582 8.556 13.6384 8.55486 13.4178C8.55598 12.1436 8.55674 10.869 8.55336 9.59546C8.55261 9.49384 8.57924 9.47021 8.67936 9.47021C10.7951 9.47321 12.9112 9.47321 15.0277 9.47021C15.1301 9.47021 15.1519 9.49721 15.1519 9.59696C15.1485 10.8618 15.1477 12.1267 15.1496 13.3916C15.15 14.2233 14.8624 14.946 14.3362 15.5812" fill="#FEFEFE"/>
<path fill-rule="evenodd" clip-rule="evenodd" d="M9.91911 8.83836C9.51636 8.94824 9.11849 9.07499 8.73524 9.24186C8.66436 9.27261 8.63586 9.26173 8.60586 9.19198C8.38383 8.68109 8.1592 8.17134 7.93199 7.66274C7.90686 7.60574 7.91024 7.56373 7.94249 7.51348C8.09699 7.27048 8.24924 7.02636 8.39624 6.77886C8.43711 6.70986 8.47649 6.70198 8.54624 6.72823C8.81061 6.82948 9.07649 6.92511 9.34274 7.02336C9.37499 7.03499 9.40611 7.05786 9.44436 7.04886C9.45036 7.05186 9.45599 7.05673 9.46199 7.06048C9.53436 7.19886 9.54486 7.35561 9.59211 7.50074C9.63561 7.64286 9.67424 7.78649 9.70161 7.93199C9.72824 8.08499 9.78599 8.23011 9.80999 8.38236C9.83511 8.53761 9.92586 8.67674 9.91911 8.83836Z" fill="#0092DC"/>
<path fill-rule="evenodd" clip-rule="evenodd" d="M12.6701 6.79121C12.942 6.63446 13.2154 6.47846 13.4865 6.32021C13.5443 6.28646 13.5836 6.27559 13.6343 6.33559C13.8405 6.57859 14.0513 6.81746 14.2609 7.05934C14.2834 7.08409 14.2856 7.11634 14.28 7.14709C14.2459 7.31621 14.2024 7.48459 14.1533 7.65034C14.145 7.68184 14.1188 7.70171 14.0985 7.72421C14.0903 7.76171 14.0816 7.79809 14.0741 7.83409C14.094 7.99193 14.0541 8.15151 13.9624 8.28146C13.9335 8.32384 13.9301 8.37146 13.9324 8.42209C13.9245 8.57059 13.9219 8.72171 13.8068 8.83946C13.381 8.74622 12.9507 8.67538 12.5175 8.62721C12.4658 8.55746 12.4841 8.47984 12.4928 8.40371C12.5164 8.33284 12.5194 8.25934 12.5119 8.18471C12.5096 8.14785 12.5127 8.11085 12.5209 8.07484C12.5415 8.00534 12.5478 7.93234 12.5393 7.86034C12.5359 7.82284 12.5411 7.78646 12.5475 7.75046C12.5715 7.67996 12.5715 7.60759 12.5659 7.53596C12.5636 7.4991 12.5667 7.4621 12.5749 7.42609C12.5989 7.35709 12.5985 7.28471 12.5933 7.21309C12.5907 7.177 12.5935 7.14074 12.6015 7.10546C12.6255 7.03871 12.6244 6.96934 12.6233 6.90034C12.6244 6.85796 12.6304 6.81634 12.6701 6.79121Z" fill="#171795"/>
<path fill-rule="evenodd" clip-rule="evenodd" d="M12.636 7.10331C12.6341 7.13931 12.6333 7.17418 12.6315 7.20943C12.6015 7.28031 12.6397 7.35756 12.6082 7.42693C12.6071 7.46293 12.6056 7.49856 12.6037 7.53381C12.5748 7.60431 12.6127 7.68193 12.5812 7.75131L12.5767 7.85818C12.5478 7.92868 12.5857 8.00631 12.5542 8.07568L12.549 8.18256C12.5201 8.25306 12.558 8.33068 12.5265 8.39931C12.5231 8.47618 12.5197 8.55081 12.5156 8.62618C12.107 8.60537 11.6978 8.60275 11.289 8.61831C11.1412 8.65843 11.1753 8.52981 11.1412 8.46306C11.1338 8.43264 11.1307 8.40134 11.1318 8.37006C11.1337 8.28718 11.1453 8.20543 11.112 8.12631C11.0846 7.99956 11.0617 7.87131 11.0786 7.74118L11.0801 7.69656C11.0801 7.62493 11.0861 7.55218 11.061 7.48356C11.0532 7.455 11.0501 7.42535 11.052 7.39581C11.0561 7.32268 11.058 7.24993 11.031 7.17981C11.0201 7.06131 10.971 6.94393 11.0118 6.82243C11.0196 6.80916 11.0301 6.79767 11.0426 6.78868C11.2848 6.58881 11.5305 6.39156 11.7705 6.18943C11.8293 6.13806 11.8653 6.13581 11.9272 6.18643C12.1713 6.39156 12.4207 6.58918 12.6686 6.79056C12.6652 6.82206 12.6611 6.85356 12.657 6.88656C12.6296 6.95631 12.6675 7.03393 12.636 7.10331ZM14.0981 7.72393L14.2608 7.05906C14.5515 6.95293 14.8436 6.84793 15.1338 6.73843C15.2148 6.70768 15.264 6.70318 15.3153 6.79393C15.4503 7.03206 15.5973 7.26418 15.7473 7.49481C15.7931 7.56456 15.7931 7.61931 15.7571 7.69093C15.6971 7.81168 15.6345 7.93281 15.5951 8.06143C15.5527 8.20131 15.4901 8.19456 15.3742 8.14356C14.9994 7.97995 14.612 7.84664 14.2158 7.74493C14.178 7.73406 14.1371 7.73106 14.0981 7.72393Z" fill="#0092DC"/>
<path fill-rule="evenodd" clip-rule="evenodd" d="M13.806 8.83913C13.8544 8.7015 13.8544 8.55 13.9317 8.42175C14.3044 8.48775 14.6558 8.62463 15.0057 8.7615C15.2427 8.8545 15.2419 8.85675 15.1407 9.08663C15.0555 9.28013 15.0548 9.28013 14.8605 9.1965C14.5182 9.051 14.1604 8.95125 13.806 8.83913Z" fill="#0093DC"/>
<path fill-rule="evenodd" clip-rule="evenodd" d="M11.175 8.37188C11.1761 8.39963 11.1776 8.42738 11.1795 8.45475C11.1926 8.514 11.1978 8.57325 11.1768 8.63063C10.7531 8.67 10.3346 8.7435 9.91984 8.83875C9.83471 8.70263 9.81409 8.54663 9.77471 8.39625C9.81371 8.34713 9.87071 8.33475 9.92809 8.32013C10.2776 8.23313 10.6338 8.18738 10.9905 8.1435C11.0441 8.13675 11.0988 8.13413 11.1457 8.1705C11.1858 8.23275 11.139 8.30888 11.175 8.37188ZM11.0441 6.7875L11.0325 6.78975C11.0058 6.852 10.9466 6.84675 10.8948 6.85275C10.4682 6.89731 10.0446 6.96795 9.62659 7.06425C9.56659 7.07813 9.50396 7.0965 9.44884 7.04588L9.44434 7.04813C9.64609 6.8175 9.85159 6.591 10.0462 6.35588C10.1107 6.279 10.1565 6.282 10.2356 6.32888C10.503 6.48638 10.7745 6.63488 11.0441 6.7875Z" fill="#171795"/>
<path fill-rule="evenodd" clip-rule="evenodd" d="M13.9613 8.28002C13.9992 8.13152 14.0356 7.98189 14.0731 7.83264C14.5253 7.94777 14.9648 8.09777 15.3934 8.28002C15.4703 8.31377 15.4752 8.34227 15.4426 8.40602C15.3901 8.50914 15.3694 8.66252 15.2869 8.70939C15.2003 8.75777 15.0781 8.64414 14.9716 8.60402C14.6397 8.48064 14.3059 8.36514 13.9613 8.28002Z" fill="#FD0101"/>
<path fill-rule="evenodd" clip-rule="evenodd" d="M11.1769 8.63254L11.1795 8.45667C11.2294 8.50279 11.1626 8.62804 11.2905 8.62091C11.2556 8.63939 11.2148 8.64356 11.1769 8.63254Z" fill="#3898D9"/>
<path fill-rule="evenodd" clip-rule="evenodd" d="M15.015 9.61049C15.0161 10.0417 15.015 10.4719 15.021 10.9031C15.0221 10.9916 14.9786 10.9916 14.9137 10.9916C14.5323 10.9894 14.1513 10.9894 13.7692 10.9894C13.7411 10.8334 13.7595 10.6766 13.7576 10.5199C13.7535 10.2461 13.7568 9.97199 13.7561 9.69749C13.7561 9.64536 13.7535 9.59849 13.8292 9.60074C14.2248 9.60824 14.6197 9.58911 15.015 9.61049Z" fill="#FE0000"/>
<path fill-rule="evenodd" clip-rule="evenodd" d="M9.95929 10.9912H11.2024C11.2459 11.0287 11.2418 11.0805 11.2418 11.1288C11.2425 11.4963 11.2433 11.8657 11.2418 12.234C11.2407 12.3832 11.2152 12.4091 11.0689 12.4098C10.7457 12.4136 10.4217 12.4136 10.0992 12.4098C9.95554 12.4091 9.94654 12.3975 9.94654 12.2553C9.94579 11.8691 9.94579 11.4828 9.94654 11.0966C9.94654 11.0613 9.93829 11.0242 9.95929 10.9912Z" fill="#FE0101"/>
<path fill-rule="evenodd" clip-rule="evenodd" d="M12.4987 10.9912C12.9131 10.9912 13.3278 10.9912 13.7418 10.9927C13.764 11.0242 13.7546 11.0617 13.7546 11.0973C13.7553 11.4877 13.7527 11.8781 13.7568 12.2692C13.758 12.3652 13.7295 12.4106 13.6293 12.4106C13.2873 12.4106 12.9465 12.4113 12.6056 12.4106C12.5032 12.4098 12.4593 12.36 12.4593 12.2606C12.4586 11.8747 12.4578 11.4877 12.4605 11.1026C12.4605 11.0606 12.4638 11.0205 12.4987 10.9912Z" fill="#FE0000"/>
<path fill-rule="evenodd" clip-rule="evenodd" d="M15.0112 12.3975C15.022 12.8226 15.0215 13.248 15.0097 13.6732C15.0071 13.7553 14.979 13.7793 14.898 13.7786C14.5192 13.7741 14.1442 13.7763 13.7692 13.7763C13.7261 13.7396 13.731 13.6886 13.7302 13.6387C13.7295 13.2712 13.7276 12.9041 13.7313 12.5358C13.7313 12.393 13.7426 12.3843 13.8855 12.3843H14.9081C14.943 12.384 14.9805 12.3768 15.0127 12.3975M9.93222 13.7748C9.58384 13.7748 9.23547 13.7748 8.88672 13.7756C8.69584 13.7756 8.69584 13.7756 8.68497 13.5888C8.66397 13.2138 8.68234 12.8351 8.67597 12.4563C8.67409 12.3948 8.70672 12.3825 8.75959 12.3825C9.12859 12.3832 9.49759 12.3847 9.86584 12.3825C9.96709 12.3817 9.97009 12.4477 9.97197 12.5171C9.97422 12.7147 9.97272 12.9127 9.97272 13.1103C9.97272 13.281 9.97347 13.4523 9.97197 13.623C9.97084 13.6762 9.97984 13.7325 9.93222 13.7741M12.4725 16.5037C12.0635 16.5947 11.6395 16.595 11.2305 16.5045C11.1997 16.3353 11.2215 16.1655 11.2188 15.9956C11.2147 15.7518 11.2207 15.5092 11.2155 15.267C11.2147 15.1792 11.2488 15.1432 11.3325 15.1425C11.6793 15.1402 12.0255 15.1402 12.3716 15.1432C12.4432 15.1432 12.489 15.1668 12.4886 15.2538C12.486 15.6581 12.4886 16.0623 12.4871 16.4666C12.4867 16.4816 12.4781 16.4921 12.4725 16.5037Z" fill="#FE0000"/>
<path fill-rule="evenodd" clip-rule="evenodd" d="M12.4725 16.5038C12.4725 16.104 12.4699 15.7031 12.4751 15.3041C12.4759 15.2134 12.4549 15.1789 12.3566 15.1804C12.0199 15.1864 11.6831 15.1864 11.3464 15.1804C11.247 15.1789 11.2279 15.2149 11.229 15.3049C11.2339 15.7054 11.2312 16.1048 11.2312 16.5045C11.1802 16.4678 11.2057 16.4138 11.2057 16.3691C11.2021 16.0141 11.2023 15.6591 11.2065 15.3041C11.2072 15.2134 11.1855 15.1804 11.0884 15.1819C10.7516 15.1886 10.4145 15.1886 10.0777 15.1819C9.97987 15.1804 9.95775 15.2134 9.96037 15.3049C9.96637 15.5018 9.96112 15.7005 9.96037 15.8966C9.96037 15.9011 9.9585 15.9075 9.95587 15.9083C9.94912 15.9113 9.942 15.9105 9.93487 15.9105C9.85575 15.7969 9.88837 15.6668 9.88575 15.5434C9.8775 15.1931 9.9225 15.2359 9.57562 15.2314C9.468 15.2306 9.36075 15.2381 9.25387 15.2115C9.21787 15.1185 9.29887 15.1594 9.32325 15.1586C9.489 15.1541 9.65625 15.1519 9.82275 15.1579C9.91087 15.1609 9.93787 15.1331 9.93787 15.0443C9.933 14.6216 9.93525 14.1975 9.93525 13.7749C9.93525 13.353 9.93375 12.9304 9.93712 12.5085C9.93787 12.4223 9.91462 12.3911 9.82462 12.3919C9.49237 12.3971 9.16012 12.3979 8.82712 12.3919C8.72475 12.3904 8.68875 12.4155 8.69062 12.5258C8.69662 12.8786 8.68987 13.2341 8.688 13.5885C8.64487 13.3935 8.673 13.1959 8.667 12.999C8.66175 12.8291 8.67112 12.6585 8.66437 12.4879C8.661 12.3919 8.69512 12.3649 8.78887 12.3664C9.12975 12.3709 9.47062 12.3641 9.81187 12.3709C9.91537 12.3724 9.93975 12.3409 9.93787 12.2419C9.933 11.8253 9.93525 11.4075 9.93525 10.9894C9.92303 10.9779 9.913 10.9643 9.90562 10.9493C9.87787 10.8848 9.88462 10.8165 9.8835 10.7494C9.88275 10.4351 9.882 10.1209 9.88462 9.80663C9.88462 9.70126 9.8445 9.66376 9.741 9.66526C9.453 9.66901 9.16575 9.66751 8.8785 9.66526C8.77912 9.66451 8.74387 9.70463 8.74387 9.80213C8.74462 10.1156 8.74537 10.4314 8.74387 10.7456C8.74387 10.8131 8.75062 10.8803 8.72512 10.9448C8.71809 10.9601 8.70859 10.9741 8.697 10.9864C8.64787 10.9616 8.667 10.9159 8.667 10.8795C8.66625 10.4884 8.67037 10.0973 8.66437 9.70688C8.66175 9.60151 8.70112 9.57938 8.79787 9.58088C9.14287 9.58613 9.489 9.58688 9.83512 9.58013C9.93637 9.57863 9.96637 9.61013 9.9645 9.71063C9.95962 10.1378 9.96187 10.5645 9.96187 10.9901C9.96187 11.4045 9.96525 11.8185 9.96037 12.2329C9.95962 12.3319 9.97612 12.3758 10.0912 12.372C10.4198 12.3641 10.7485 12.3641 11.0771 12.372C11.1907 12.3758 11.208 12.3319 11.2072 12.2329C11.202 11.8185 11.2054 11.4045 11.2054 10.9901C11.2054 10.5638 11.208 10.137 11.202 9.70988C11.2012 9.60751 11.2339 9.57863 11.334 9.58013C11.6801 9.58613 12.0262 9.58613 12.3724 9.58013C12.4725 9.57863 12.5051 9.60713 12.5036 9.70913C12.4991 10.137 12.5017 10.5638 12.5025 10.9901C12.5017 11.409 12.5044 11.8286 12.5002 12.2471C12.4984 12.3356 12.5167 12.3739 12.6169 12.3716C12.9543 12.3655 13.2919 12.3658 13.6294 12.3724C13.7302 12.3739 13.746 12.3356 13.746 12.2471C13.7426 11.829 13.7452 11.4094 13.746 10.9916L13.7437 9.69751C13.7437 9.63526 13.7411 9.58088 13.8311 9.58163C14.2132 9.58538 14.595 9.58388 14.9767 9.58388C14.9962 9.58388 15.0112 9.59176 15.0184 9.61013C14.6355 9.60863 14.253 9.60938 13.8709 9.60413C13.7801 9.60338 13.7685 9.64501 13.7692 9.72001C13.7726 10.1434 13.7719 10.5668 13.7726 10.9894C13.7719 11.4128 13.7737 11.8346 13.7685 12.2573C13.7677 12.3435 13.7925 12.3724 13.8821 12.3716C14.2147 12.3664 14.5462 12.3686 14.8792 12.3709C14.925 12.3716 14.9786 12.3461 15.0157 12.3971C14.637 12.3971 14.2582 12.3986 13.8832 12.3949C13.7959 12.3941 13.7674 12.4196 13.7681 12.5093C13.7734 12.9311 13.7715 13.3538 13.7722 13.7764C13.7715 14.1983 13.7741 14.6209 13.7681 15.0428C13.7662 15.1425 13.8056 15.1635 13.8941 15.1601C14.0599 15.1541 14.2267 15.1579 14.3925 15.1594C14.4202 15.1601 14.4802 15.1373 14.4517 15.21C14.2969 15.2475 14.139 15.2261 13.9822 15.2314C13.8322 15.2366 13.8262 15.2415 13.8229 15.3949C13.8214 15.5025 13.8221 15.6101 13.8229 15.7185C13.8254 15.7862 13.8077 15.853 13.7719 15.9105C13.7186 15.8944 13.7452 15.8483 13.7452 15.8198C13.7405 15.64 13.7402 15.4602 13.7445 15.2805C13.7471 15.2021 13.719 15.1823 13.6444 15.183C13.3035 15.186 12.9615 15.1875 12.6206 15.1823C12.5261 15.18 12.4972 15.2063 12.4987 15.3015C12.5047 15.6604 12.5014 16.02 12.4999 16.3804C12.4984 16.4216 12.5201 16.4708 12.4725 16.5038Z" fill="#FE7F7F"/>
<path fill-rule="evenodd" clip-rule="evenodd" d="M9.25122 15.2111C9.38322 15.1474 9.52235 15.1882 9.65735 15.1849C9.93222 15.177 9.93222 15.1826 9.93222 15.453V15.9101C9.6566 15.7249 9.44135 15.48 9.25122 15.2111Z" fill="#FE0000"/>
<path fill-rule="evenodd" clip-rule="evenodd" d="M13.7692 15.9113C13.7685 15.7047 13.7703 15.4988 13.7658 15.2933C13.7643 15.2157 13.7808 15.1759 13.8682 15.1842C14.061 15.2033 14.2578 15.1527 14.4487 15.2112C14.2578 15.4789 14.0426 15.7238 13.7692 15.9113Z" fill="#FE0202"/>
<path fill-rule="evenodd" clip-rule="evenodd" d="M9.92509 10.965C9.9269 10.9732 9.92941 10.9812 9.93259 10.989C9.51971 10.9883 9.10646 10.9875 8.69434 10.986C8.69509 10.9788 8.69622 10.9717 8.69771 10.9646C8.74121 10.914 8.80084 10.914 8.85971 10.9133C9.16084 10.9103 9.46234 10.9103 9.76459 10.9133C9.82234 10.9144 9.88196 10.9144 9.92509 10.965Z" fill="#FE0101"/>
<path fill-rule="evenodd" clip-rule="evenodd" d="M9.44995 7.04702C9.8182 6.98027 10.182 6.88877 10.5547 6.84714C10.7148 6.82877 10.8742 6.80964 11.0332 6.79089C11.0463 6.92064 11.0598 7.05077 11.0722 7.18052C11.0838 7.21277 11.0865 7.24277 11.0688 7.27277C10.9147 7.34177 10.7452 7.32902 10.5836 7.35414C10.2997 7.39727 10.0181 7.44639 9.7387 7.50939C9.67945 7.52252 9.61795 7.55102 9.5587 7.50789C9.50883 7.35752 9.46008 7.20752 9.44995 7.04702Z" fill="#FE0000"/>
<path fill-rule="evenodd" clip-rule="evenodd" d="M9.558 7.50749C10.0505 7.37791 10.5539 7.29356 11.0618 7.25549C11.1034 7.29637 11.0599 7.35599 11.0918 7.39912L11.097 7.48124C11.1259 7.55212 11.0854 7.63049 11.121 7.70099C11.1193 7.70708 11.1165 7.71281 11.1128 7.71787C11.0801 7.76324 11.0299 7.76624 10.98 7.77224C10.5908 7.81313 10.2043 7.87624 9.82238 7.96124C9.76988 7.97287 9.71588 7.98599 9.6675 7.94662C9.63093 7.8002 9.59418 7.65382 9.55725 7.50749" fill="#171795"/>
<path fill-rule="evenodd" clip-rule="evenodd" d="M9.66821 7.94627C10.1448 7.8394 10.6237 7.7434 11.1135 7.7179C11.1266 7.85402 11.139 7.99127 11.1525 8.12815C11.1622 8.14802 11.1656 8.16565 11.1442 8.17952C10.7094 8.21417 10.2781 8.28326 9.85421 8.38615C9.82871 8.39215 9.80171 8.39365 9.77509 8.39627C9.73984 8.24665 9.70309 8.09665 9.66821 7.94627Z" fill="#FE0000"/>
<path fill-rule="evenodd" clip-rule="evenodd" d="M8.87845 8.64376C8.75358 8.61526 8.64333 8.56089 8.57658 8.44314C8.56758 8.42701 8.51133 8.42701 8.5507 8.39026C8.58333 8.36026 8.59158 8.40489 8.61258 8.41426C8.66358 8.43826 8.70258 8.48964 8.76745 8.48026C8.86195 8.49864 8.95533 8.50164 9.0487 8.47651C9.19945 8.41801 9.31045 8.31901 9.36408 8.16226C9.39895 8.11989 9.3562 8.05989 9.39745 8.01789C9.40983 8.00551 9.42145 7.99951 9.4087 8.01264C9.40795 8.01339 9.41583 8.02501 9.41883 8.03326V8.03626C9.44283 8.11089 9.43533 8.18701 9.42295 8.26314C9.34983 8.45739 9.23095 8.60289 9.0142 8.64414C8.97006 8.65844 8.92251 8.65831 8.87845 8.64376Z" fill="#F6F8F9"/>
<path fill-rule="evenodd" clip-rule="evenodd" d="M8.88411 7.61742C8.87586 7.63354 8.86648 7.64817 8.86011 7.66429C8.84511 7.70029 8.86611 7.75954 8.82336 7.77117C8.76973 7.78579 8.74236 7.73104 8.71086 7.69579C8.68086 7.66579 8.65723 7.63279 8.66473 7.58742C8.66789 7.57381 8.67389 7.56103 8.68236 7.54992C8.71423 7.51917 8.75098 7.50604 8.79411 7.51842C8.83536 7.54129 8.86911 7.57054 8.88411 7.61742Z" fill="#C7B71C"/>
<path fill-rule="evenodd" clip-rule="evenodd" d="M8.88416 7.6174C8.83166 7.6114 8.79904 7.5859 8.79416 7.53115C8.79095 7.52607 8.78885 7.52037 8.78801 7.51442C8.78717 7.50847 8.78761 7.50242 8.78929 7.49665C8.80916 7.46515 8.83054 7.43665 8.87554 7.45277C8.91154 7.48502 8.97079 7.5004 8.96104 7.56715C8.95541 7.61252 8.91754 7.61252 8.88416 7.6174Z" fill="#E9D017"/>
<path fill-rule="evenodd" clip-rule="evenodd" d="M8.8759 7.45273C8.85076 7.47136 8.82526 7.48949 8.7994 7.5071C8.7894 7.49978 8.78151 7.48995 8.77652 7.4786C8.77168 7.46057 8.77233 7.44151 8.7784 7.42385C8.79002 7.39685 8.8024 7.36948 8.8084 7.34098C8.81103 7.33576 8.81468 7.33112 8.81912 7.32733C8.82356 7.32353 8.82871 7.32065 8.83427 7.31885C8.86052 7.30873 8.8984 7.27498 8.91415 7.30948C8.93777 7.35898 8.90252 7.4081 8.8759 7.45273Z" fill="#F0D416"/>
<path fill-rule="evenodd" clip-rule="evenodd" d="M8.49744 7.51121C8.45882 7.48346 8.41907 7.45421 8.49632 7.42534C8.53644 7.41071 8.57994 7.40246 8.60732 7.36609C8.65232 7.37846 8.66994 7.41071 8.67407 7.45384C8.66507 7.50071 8.62832 7.51234 8.58894 7.52284C8.55744 7.53109 8.52894 7.50634 8.49744 7.51121Z" fill="#CDBA19"/>
<path fill-rule="evenodd" clip-rule="evenodd" d="M8.61189 7.34591C8.60927 7.31066 8.60289 7.26154 8.63927 7.25216C8.67902 7.24279 8.70602 7.28591 8.73077 7.31666C8.77089 7.33579 8.78102 7.37104 8.78102 7.41116C8.78107 7.4239 8.77905 7.43657 8.77502 7.44866C8.72064 7.49254 8.69814 7.44491 8.67002 7.41266C8.65996 7.38376 8.63914 7.35985 8.61189 7.34591Z" fill="#E0CA1A"/>
<path fill-rule="evenodd" clip-rule="evenodd" d="M8.68876 7.58737L8.70976 7.69574L8.58788 7.72349C8.54626 7.74262 8.54551 7.71262 8.54138 7.68524C8.55116 7.66033 8.56606 7.63774 8.58511 7.61894C8.60417 7.60014 8.62696 7.58555 8.65201 7.57612C8.66525 7.57497 8.67842 7.57901 8.68876 7.58737Z" fill="#EED316"/>
<path fill-rule="evenodd" clip-rule="evenodd" d="M8.68871 7.5874C8.68007 7.5873 8.67144 7.5868 8.66284 7.5859C8.62684 7.58515 8.59196 7.6099 8.55634 7.58815C8.53609 7.5634 8.51621 7.53753 8.49634 7.51278C8.52296 7.4674 8.55709 7.4989 8.58784 7.50265C8.63021 7.5064 8.70484 7.44903 8.69096 7.5574L8.68871 7.5874Z" fill="#D7BE14"/>
<path fill-rule="evenodd" clip-rule="evenodd" d="M8.55745 7.58816C8.59233 7.58441 8.62683 7.50304 8.66395 7.58591C8.6437 7.63429 8.59533 7.64516 8.5582 7.66954C8.54245 7.66166 8.53983 7.65116 8.54995 7.63729L8.55745 7.58816Z" fill="#F0D516"/>
<path fill-rule="evenodd" clip-rule="evenodd" d="M8.6119 7.34593C8.6824 7.30355 8.69102 7.34743 8.69177 7.40293C8.70415 7.4183 8.7034 7.43593 8.69777 7.45355C8.68802 7.46105 8.67602 7.46143 8.6644 7.4558C8.64602 7.4258 8.6269 7.39655 8.60777 7.36805C8.60633 7.36435 8.60596 7.36031 8.60669 7.3564C8.60741 7.35249 8.60922 7.34887 8.6119 7.34593Z" fill="#F2D717"/>
<path fill-rule="evenodd" clip-rule="evenodd" d="M9.04871 8.47803C9.00469 8.49828 8.95692 8.50908 8.90848 8.50972C8.86003 8.51037 8.81199 8.50085 8.76746 8.48178C8.86083 8.47953 8.95533 8.47953 9.04871 8.47803Z" fill="#2E6E8E"/>
<path fill-rule="evenodd" clip-rule="evenodd" d="M9.41998 8.03518C9.36523 8.06218 9.41098 8.13343 9.36523 8.16418V7.9613C9.42336 7.96618 9.41661 8.00443 9.41998 8.03518Z" fill="#2B6A89"/>
<path fill-rule="evenodd" clip-rule="evenodd" d="M9.4238 8.26495L9.41968 8.03845C9.43969 8.0727 9.45058 8.11151 9.4513 8.15116C9.45202 8.19082 9.44256 8.23 9.4238 8.26495Z" fill="#2C6F90"/>
<path fill-rule="evenodd" clip-rule="evenodd" d="M8.77206 7.42578C8.73343 7.39953 8.75106 7.35115 8.73193 7.31665L8.83468 7.3189L8.82306 7.3429C8.81376 7.37458 8.79615 7.4032 8.77206 7.42578Z" fill="#A59310"/>
<path fill-rule="evenodd" clip-rule="evenodd" d="M8.87854 8.6438C8.92467 8.6438 8.96929 8.6438 9.01429 8.64455C8.96929 8.67867 8.92354 8.6768 8.87854 8.6438Z" fill="#0778B1"/>
<path fill-rule="evenodd" clip-rule="evenodd" d="M8.54997 7.63721C8.5526 7.64733 8.55597 7.65858 8.55822 7.66946C8.54922 7.69721 8.56235 7.71408 8.58897 7.72383C8.57247 7.73621 8.55035 7.75983 8.53535 7.73396C8.51735 7.70396 8.5256 7.66721 8.54997 7.63721Z" fill="#323713"/>
<path fill-rule="evenodd" clip-rule="evenodd" d="M13.1775 7.96994C13.0803 8.01981 13.0908 8.13344 13.038 8.20881C13.0091 8.23019 12.9907 8.22269 12.9832 8.18819C13.035 8.10831 13.0642 8.02281 13.0368 7.92531C12.9851 7.94144 12.9885 7.99281 12.9573 8.01831C12.9318 8.02281 12.9142 8.02056 12.93 7.98831C12.9678 7.89456 12.9161 7.80869 12.9067 7.71944C12.8958 7.66319 12.945 7.62794 12.9558 7.57956C12.9517 7.57281 12.9525 7.56569 12.9573 7.56119C13.0095 7.53719 13.0282 7.58744 13.0623 7.60431C13.086 7.62119 13.1118 7.63356 13.1347 7.65119C13.1763 7.69056 13.143 7.72581 13.125 7.76106C13.1133 7.78094 13.1126 7.79781 13.1347 7.81169C13.1446 7.81713 13.1534 7.82438 13.1606 7.83306C13.1666 7.84291 13.1706 7.85389 13.1722 7.86531C13.1792 7.89973 13.181 7.935 13.1775 7.96994Z" fill="#DDC415"/>
<path fill-rule="evenodd" clip-rule="evenodd" d="M13.0421 7.64097C13.0136 7.61472 12.9855 7.58735 12.9566 7.5611C12.9442 7.5026 12.9892 7.41597 12.8704 7.4111C12.8332 7.40885 12.8501 7.36422 12.8632 7.33497C12.876 7.30872 12.912 7.29335 12.9004 7.25585C12.8932 7.23222 12.8359 7.2176 12.8809 7.1861C12.9082 7.16697 12.9394 7.1906 12.9626 7.2131C13.0297 7.21235 13.0995 7.19547 13.1505 7.25847C13.1779 7.26635 13.2244 7.2686 13.2172 7.3016C13.2112 7.32785 13.1689 7.34697 13.1329 7.32072C13.0702 7.34772 13.1212 7.4021 13.1036 7.44072C13.0639 7.5026 13.1014 7.5866 13.0421 7.64097Z" fill="#E1C715"/>
<path fill-rule="evenodd" clip-rule="evenodd" d="M13.5488 8.11656C13.5454 8.06818 13.518 8.04568 13.4704 8.04118C13.4423 8.03181 13.407 8.03181 13.392 7.99656C13.3796 7.96769 13.3737 7.93645 13.3748 7.90506C13.3931 7.82143 13.4629 7.85068 13.5146 7.83981C13.515 7.82728 13.5127 7.81482 13.508 7.8032C13.5033 7.79159 13.4962 7.78107 13.4873 7.77231C13.4663 7.73931 13.4329 7.69993 13.4749 7.66993C13.5139 7.64143 13.5664 7.61518 13.6166 7.65981C13.6242 7.66968 13.6304 7.68053 13.635 7.69206C13.65 7.73668 13.6226 7.78731 13.6541 7.82968C13.6853 7.91031 13.6631 7.99093 13.6586 8.07156C13.632 8.09856 13.6043 8.12518 13.5769 8.15218C13.5514 8.15293 13.5323 8.14843 13.5488 8.11656Z" fill="#F1D616"/>
<path fill-rule="evenodd" clip-rule="evenodd" d="M13.6087 7.69731L13.6053 7.67106C13.6081 7.66544 13.6119 7.66042 13.6166 7.6563C13.6213 7.65217 13.6268 7.64904 13.6327 7.64706C13.6803 7.64406 13.7276 7.64106 13.7752 7.63956C13.8937 7.63506 13.8221 7.68569 13.7988 7.72319C13.7415 7.76144 13.6946 7.80531 13.7137 7.88444C13.7403 7.95981 13.7028 8.01644 13.6593 8.07119C13.5993 7.99656 13.647 7.90994 13.6342 7.82931C13.6005 7.79031 13.6413 7.73631 13.6087 7.69731Z" fill="#E0C715"/>
<path fill-rule="evenodd" clip-rule="evenodd" d="M13.6313 7.64705C13.6231 7.65492 13.6129 7.66317 13.6039 7.67105C13.5529 7.6463 13.5211 7.69317 13.4813 7.70555C13.4963 7.72092 13.5106 7.7363 13.5256 7.75092C13.5597 7.77942 13.4922 7.83305 13.5503 7.8563C13.5387 7.87092 13.5769 7.93242 13.5151 7.89792C13.4641 7.86942 13.4228 7.84242 13.3894 7.91405C13.3726 7.95342 13.3726 7.95342 13.3268 7.9163C13.3243 7.91035 13.3223 7.9042 13.3208 7.89792V7.87805C13.3508 7.7918 13.3752 7.70217 13.4157 7.61967C13.4877 7.62792 13.5687 7.56792 13.6313 7.64705Z" fill="#E0C715"/>
<path fill-rule="evenodd" clip-rule="evenodd" d="M13.1475 7.85775V7.8315C13.1096 7.78837 13.1377 7.7625 13.1666 7.73175C13.2082 7.68862 13.1902 7.62187 13.2176 7.5705C13.2225 7.56652 13.227 7.56213 13.2311 7.55737L13.362 7.58737C13.3567 7.6065 13.3428 7.62187 13.3365 7.64025C13.3406 7.66312 13.3612 7.66575 13.3755 7.67775C13.3946 7.75312 13.3346 7.81237 13.3365 7.88587L13.3372 7.88437C13.3188 7.902 13.3005 7.899 13.278 7.893C13.2622 7.88775 13.2588 7.81237 13.2225 7.88362C13.2082 7.91062 13.1681 7.88212 13.1475 7.85775Z" fill="#D7BF14"/>
<path fill-rule="evenodd" clip-rule="evenodd" d="M13.1438 7.13251C13.2327 7.07814 13.3129 7.10476 13.3913 7.15651C13.407 7.18051 13.4172 7.20489 13.4055 7.23339C13.4029 7.25626 13.3913 7.27014 13.3677 7.27501L13.2252 7.23564C13.1937 7.20489 13.1483 7.18501 13.1438 7.13251Z" fill="#9D0202"/>
<path fill-rule="evenodd" clip-rule="evenodd" d="M13.0422 7.64105C13.0519 7.56792 13.0043 7.4798 13.0939 7.4258C13.0981 7.4303 13.1014 7.43442 13.1048 7.43742C13.1056 7.44492 13.1071 7.45055 13.1071 7.4558C13.1082 7.44905 13.1089 7.44267 13.1116 7.43442L13.1213 7.42505L13.2316 7.5578L13.2263 7.56942C13.2106 7.6238 13.1656 7.6463 13.1206 7.66917C13.0939 7.65942 13.0681 7.65117 13.0422 7.64105Z" fill="#CCB514"/>
<path fill-rule="evenodd" clip-rule="evenodd" d="M13.1438 7.13246C13.1877 7.15383 13.2297 7.17708 13.2255 7.23558C13.2015 7.24721 13.1682 7.23033 13.1498 7.25958C13.0842 7.26236 13.0191 7.24663 12.9619 7.21421C13.0178 7.17483 13.071 7.13171 13.1438 7.13246Z" fill="#E22505"/>
<path fill-rule="evenodd" clip-rule="evenodd" d="M13.1474 7.85779C13.2101 7.86641 13.2802 7.82779 13.3368 7.88404C13.3368 7.89416 13.3368 7.90391 13.3376 7.91254C13.3466 7.99016 13.2866 7.96466 13.2494 7.97179L13.1771 7.96954C13.1396 7.93991 13.1223 7.90466 13.1474 7.85779Z" fill="#EDD216"/>
<path fill-rule="evenodd" clip-rule="evenodd" d="M13.3365 7.88628C13.3053 7.81653 13.3188 7.75428 13.3638 7.69653C13.3548 7.68641 13.3503 7.67666 13.3515 7.66353C13.3571 7.63803 13.3698 7.61741 13.3953 7.60803C13.4055 7.60803 13.413 7.61178 13.4171 7.62041C13.4392 7.72466 13.395 7.80641 13.3365 7.88628Z" fill="#EDD216"/>
<path fill-rule="evenodd" clip-rule="evenodd" d="M13.4182 7.99387C13.4366 8.00924 13.4542 8.02537 13.4715 8.04074C13.3942 8.04449 13.3582 8.11049 13.3057 8.15212C13.284 8.15512 13.269 8.15287 13.2825 8.12512C13.3042 8.0855 13.314 8.04043 13.3106 7.99537C13.3459 7.96087 13.3826 7.96462 13.4182 7.99387Z" fill="#E2C915"/>
<path fill-rule="evenodd" clip-rule="evenodd" d="M13.4183 7.99385L13.3106 7.99535C13.2923 7.98298 13.2623 8.0006 13.2499 7.97248C13.2716 7.94098 13.3283 7.9616 13.338 7.91248C13.3556 7.91698 13.3721 7.93798 13.3909 7.91398C13.4224 7.93235 13.4171 7.9646 13.4183 7.99385Z" fill="#CEB713"/>
<path fill-rule="evenodd" clip-rule="evenodd" d="M13.5488 8.11646L13.5765 8.15171C13.5499 8.18996 13.5222 8.22783 13.4955 8.26683C13.4663 8.28521 13.4404 8.28821 13.4198 8.25521L13.5488 8.11646Z" fill="#D3BB15"/>
<path fill-rule="evenodd" clip-rule="evenodd" d="M13.4209 8.25378C13.4457 8.25828 13.4708 8.26166 13.4967 8.26541C13.5042 8.32016 13.4708 8.33703 13.4262 8.34228C13.4007 8.34528 13.3823 8.33141 13.3755 8.30778C13.365 8.27066 13.3958 8.26466 13.4209 8.25378Z" fill="#C7220C"/>
<path fill-rule="evenodd" clip-rule="evenodd" d="M13.4654 7.29004C13.5082 7.31404 13.5554 7.33316 13.5839 7.37704C13.5888 7.38641 13.5873 7.39391 13.5787 7.40066C13.5086 7.40141 13.4587 7.36466 13.4137 7.31554C13.4257 7.29604 13.4508 7.30279 13.4654 7.29004Z" fill="#90020C"/>
<path fill-rule="evenodd" clip-rule="evenodd" d="M13.5787 7.40058L13.584 7.37695C13.6357 7.3837 13.6864 7.39158 13.7381 7.39908C13.683 7.42645 13.6305 7.44595 13.5787 7.40058Z" fill="#A10106"/>
<path fill-rule="evenodd" clip-rule="evenodd" d="M13.5263 7.2124L13.6639 7.22403C13.5934 7.27615 13.5431 7.2739 13.4895 7.24165C13.4948 7.22215 13.5139 7.22215 13.5263 7.2124Z" fill="#870107"/>
<path fill-rule="evenodd" clip-rule="evenodd" d="M12.9296 8.10897C12.9356 8.15285 12.9078 8.1611 12.873 8.15885C12.8505 8.1566 12.8257 8.15285 12.8272 8.12285C12.8283 8.0966 12.8557 8.09285 12.8722 8.08122C12.8981 8.07597 12.9195 8.07972 12.9296 8.10897Z" fill="#DA2406"/>
<path fill-rule="evenodd" clip-rule="evenodd" d="M12.9829 8.18811C12.996 8.20649 13.0163 8.21099 13.0376 8.20874C13.0436 8.24811 13.026 8.26799 12.9878 8.26649C12.9638 8.26649 12.9416 8.25786 12.9401 8.23124C12.9386 8.20574 12.9638 8.19749 12.9829 8.18811Z" fill="#C9260A"/>
<path fill-rule="evenodd" clip-rule="evenodd" d="M13.7134 7.88256C13.6744 7.79256 13.7134 7.74419 13.7985 7.72131C13.761 7.77081 13.7175 7.81619 13.7134 7.88256Z" fill="#DFC616"/>
<path fill-rule="evenodd" clip-rule="evenodd" d="M13.5263 7.2124L13.4896 7.24165C13.4656 7.24015 13.4412 7.24015 13.4172 7.2394L13.4089 7.24878L13.3984 7.24128L13.3932 7.15503C13.4374 7.17453 13.4813 7.1944 13.5263 7.2124Z" fill="#C70000"/>
<path fill-rule="evenodd" clip-rule="evenodd" d="M13.3957 7.60727C13.386 7.62789 13.3747 7.64739 13.365 7.66877C13.3391 7.65489 13.2941 7.70252 13.2832 7.64252C13.2975 7.60727 13.3256 7.59114 13.3623 7.58777L13.3957 7.60727Z" fill="#E0C715"/>
<path fill-rule="evenodd" clip-rule="evenodd" d="M12.636 7.10322C12.6401 7.03085 12.6143 6.95472 12.6585 6.88647C12.6578 6.95922 12.6788 7.03385 12.636 7.10322Z" fill="#447BC8"/>
<path fill-rule="evenodd" clip-rule="evenodd" d="M13.26 8.21732C13.2525 8.28032 13.2075 8.27657 13.1733 8.25182C13.1358 8.22632 13.1685 8.20945 13.1951 8.1997C13.2191 8.19595 13.2442 8.18957 13.26 8.21732Z" fill="#C92D0A"/>
<path fill-rule="evenodd" clip-rule="evenodd" d="M12.5819 7.75168C12.5861 7.6793 12.5602 7.60318 12.6044 7.53418C12.6033 7.6073 12.6243 7.68343 12.5819 7.75168Z" fill="#447AC8"/>
<path fill-rule="evenodd" clip-rule="evenodd" d="M12.555 8.07602C12.5591 8.00365 12.5332 7.9279 12.5775 7.85852C12.5767 7.93165 12.597 8.00777 12.555 8.07602Z" fill="#447BC8"/>
<path fill-rule="evenodd" clip-rule="evenodd" d="M12.9297 8.10903C12.9106 8.09966 12.8914 8.08916 12.8723 8.08128C12.8918 8.04978 12.9109 8.01978 12.9297 7.98828C12.939 7.99811 12.9481 8.00811 12.9571 8.01828C12.9627 8.05278 12.9477 8.08128 12.9297 8.10903Z" fill="#BEA816"/>
<path fill-rule="evenodd" clip-rule="evenodd" d="M12.6086 7.42722C12.6134 7.35484 12.5864 7.27909 12.6318 7.20972C12.6311 7.28434 12.6509 7.35897 12.6086 7.42722Z" fill="#447AC8"/>
<path fill-rule="evenodd" clip-rule="evenodd" d="M12.5277 8.39961C12.5318 8.32724 12.5067 8.25111 12.5513 8.18286C12.5502 8.25636 12.5704 8.33174 12.5277 8.39961Z" fill="#437BC8"/>
<path fill-rule="evenodd" clip-rule="evenodd" d="M13.3976 7.242C13.4044 7.2405 13.4108 7.2405 13.4168 7.23975L13.4659 7.29037C13.4591 7.31812 13.4351 7.31325 13.4153 7.31587C13.3991 7.30275 13.3841 7.28737 13.3691 7.27425C13.3781 7.263 13.3883 7.25212 13.3976 7.242Z" fill="#F80000"/>
<path fill-rule="evenodd" clip-rule="evenodd" d="M12.9556 7.57874C12.9608 7.63311 12.9256 7.67249 12.9064 7.71861C12.8712 7.65336 12.9282 7.62111 12.9556 7.57874Z" fill="#CCB514"/>
<path fill-rule="evenodd" clip-rule="evenodd" d="M13.26 8.21737L13.1947 8.19975C13.224 8.175 13.2532 8.14912 13.2825 8.12512C13.29 8.13375 13.2982 8.14275 13.3057 8.15212C13.3001 8.18062 13.2926 8.20725 13.26 8.21737Z" fill="#C9B215"/>
<path fill-rule="evenodd" clip-rule="evenodd" d="M13.0938 7.42579C13.0721 7.37817 13.0454 7.32754 13.1328 7.32117C13.1062 7.35267 13.1178 7.38942 13.1212 7.42504L13.1122 7.43442L13.1013 7.43517L13.0946 7.42579H13.0938Z" fill="#CCB514"/>
<path fill-rule="evenodd" clip-rule="evenodd" d="M11.9547 7.28136C11.9776 7.21761 11.9566 7.15011 11.9599 7.08599C11.9266 7.02074 11.9697 7.00986 12.0173 7.00161C12.1167 6.98099 12.2142 6.98399 12.3117 7.00836C12.3417 7.00536 12.3664 7.02074 12.3927 7.03311C12.4369 7.04174 12.4471 7.07474 12.4482 7.11299C12.4992 7.16361 12.4369 7.21049 12.4459 7.25886C12.3829 7.34149 12.3084 7.41473 12.2247 7.47636L12.2164 7.48086L12.2086 7.47786C12.1819 7.45086 12.1493 7.42724 12.1662 7.38186C12.1778 7.3683 12.1883 7.35389 12.1977 7.33874C12.1793 7.34474 12.1861 7.36574 12.1729 7.37549C12.1013 7.45461 12.0706 7.36799 12.0252 7.33949C12.0049 7.31586 11.9757 7.30424 11.9547 7.28136Z" fill="#E9CF17"/>
<path fill-rule="evenodd" clip-rule="evenodd" d="M11.6513 8.12816C11.5579 8.10454 11.6479 8.01229 11.5932 7.97366C11.6532 7.93466 11.5763 7.90766 11.5849 7.87391C11.6048 7.82329 11.6588 7.85629 11.688 7.82929C11.7904 7.80941 11.8932 7.81841 11.9955 7.82254C12.0574 7.84241 12.1377 7.84954 12.0915 7.95004C12.1275 8.01229 12.0968 8.06929 12.0799 8.12816C12.0015 8.17279 11.9832 8.29354 11.8677 8.29016L11.8317 8.28716C11.7848 8.24779 11.8309 8.21741 11.8459 8.17654C11.8032 8.19416 11.7915 8.26579 11.7315 8.23504C11.6865 8.21141 11.694 8.15141 11.6513 8.12816Z" fill="#E9D017"/>
<path fill-rule="evenodd" clip-rule="evenodd" d="M11.2574 7.27909C11.2484 7.25209 11.2874 7.21909 11.2477 7.19696C11.1791 7.16021 11.2417 7.14071 11.2567 7.11484C11.2518 7.05934 11.2852 7.03646 11.3302 7.02109C11.4386 6.98584 11.5484 6.97196 11.6621 6.99484C11.6823 7.00084 11.7011 7.00646 11.7202 7.01546C11.7018 7.13471 11.7419 7.26596 11.6429 7.36834C11.6002 7.41221 11.5634 7.46659 11.4918 7.41746C11.4911 7.41296 11.4903 7.40809 11.4884 7.40509C11.4753 7.38221 11.5143 7.35671 11.4843 7.34059C11.4798 7.33834 11.4674 7.37809 11.4524 7.39534C11.4157 7.42459 11.3759 7.41296 11.3636 7.37846C11.3433 7.32446 11.2908 7.31434 11.2574 7.27909Z" fill="#ECD216"/>
<path fill-rule="evenodd" clip-rule="evenodd" d="M11.2574 7.27908C11.3141 7.28583 11.3662 7.29896 11.3902 7.36196C11.4014 7.39271 11.4251 7.39571 11.4491 7.37058C11.4749 7.36046 11.4881 7.37508 11.4974 7.39608C11.5908 7.40696 11.6928 7.30008 11.6902 7.19321C11.6887 7.13546 11.6804 7.07658 11.7153 7.02483C11.7678 7.01696 11.7584 7.04696 11.7468 7.07696C11.7903 7.20596 11.7187 7.31058 11.6632 7.41108C11.6069 7.51271 11.3891 7.49808 11.3339 7.39496C11.3118 7.35221 11.2597 7.33196 11.2574 7.27908Z" fill="#C9B414"/>
<path fill-rule="evenodd" clip-rule="evenodd" d="M12.3075 7.0417C12.2201 7.0027 12.1248 7.06233 12.0378 7.01958C12.0195 7.00345 12.0255 6.9787 12.0161 6.95958C12.0011 6.9127 12.0052 6.8767 12.0671 6.88345C12.0978 6.8872 12.1286 6.89508 12.156 6.87183C12.2021 6.8887 12.2471 6.90258 12.2962 6.89395C12.321 6.8992 12.3465 6.90258 12.3712 6.90783C12.3832 6.96858 12.2985 6.9817 12.3075 7.0417Z" fill="#7C7110"/>
<path fill-rule="evenodd" clip-rule="evenodd" d="M11.6512 8.12814C11.7499 8.08501 11.6839 8.24101 11.7656 8.21739C11.8024 8.20726 11.7765 8.17651 11.7799 8.15289C11.7874 8.10601 11.8215 8.11914 11.8522 8.12214C11.8762 8.12439 11.9066 8.10451 11.9197 8.14051C11.9321 8.17276 11.9081 8.18964 11.8864 8.20501C11.8556 8.22489 11.8256 8.24401 11.8316 8.28714C11.7154 8.29801 11.6546 8.24514 11.6512 8.12814Z" fill="#B4A011"/>
<path fill-rule="evenodd" clip-rule="evenodd" d="M12.225 7.47641C12.2779 7.38266 12.3585 7.31741 12.4462 7.25891C12.42 7.38116 12.3435 7.44904 12.225 7.47641Z" fill="#CFBA17"/>
<path fill-rule="evenodd" clip-rule="evenodd" d="M12.2966 6.89396C12.2932 6.97458 12.2313 6.93333 12.1964 6.93783C12.1496 6.94233 12.1514 6.90558 12.1563 6.87183C12.2216 6.76421 12.2591 6.83021 12.2966 6.89396Z" fill="#E3CA16"/>
<path fill-rule="evenodd" clip-rule="evenodd" d="M12.1752 7.37067L12.2086 7.47754C12.1317 7.46817 12.0593 7.45279 12.0226 7.37142C11.9881 7.34592 11.9933 7.32754 12.0342 7.31592C12.0818 7.33354 12.1058 7.41042 12.1759 7.37142L12.1752 7.37067Z" fill="#CFBA17"/>
<path fill-rule="evenodd" clip-rule="evenodd" d="M12.09 7.95006C12.0784 7.90994 12.09 7.84769 12.0143 7.86006C11.9903 7.82931 11.9385 7.86156 11.9201 7.81769C11.9168 7.80567 11.9168 7.79295 11.9201 7.78094C11.9263 7.76982 11.9356 7.7607 11.9468 7.75469C11.9899 7.74531 12.0319 7.71944 12.0769 7.74456C12.0821 7.77381 12.0221 7.81131 12.0776 7.83044C12.177 7.86456 12.1069 7.90769 12.09 7.95006Z" fill="#686416"/>
<path fill-rule="evenodd" clip-rule="evenodd" d="M12.3075 7.04179C12.2689 6.96866 12.3532 6.95404 12.3716 6.90791C12.3881 6.89254 12.4084 6.87716 12.429 6.89104C12.4519 6.90566 12.4425 6.92704 12.4316 6.94729C12.4192 6.96941 12.4099 6.99341 12.399 7.01704C12.4069 7.03091 12.4042 7.04066 12.3915 7.04704C12.3634 7.04554 12.3352 7.04404 12.3075 7.04179Z" fill="#A99611"/>
<path fill-rule="evenodd" clip-rule="evenodd" d="M11.8657 8.2913C11.9212 8.24518 12.0041 8.22605 12.0191 8.1353C12.0232 8.1083 12.0566 8.1278 12.078 8.1293C12.0273 8.16455 12.0412 8.23918 11.9805 8.27518C11.9388 8.3003 11.9088 8.31643 11.8657 8.2913Z" fill="#A39E23"/>
<path fill-rule="evenodd" clip-rule="evenodd" d="M11.4184 6.87939C11.4244 6.87206 11.4309 6.86517 11.4379 6.85876C11.4896 6.82201 11.5178 6.86101 11.5496 6.89251C11.5579 6.90001 11.5662 6.90714 11.5737 6.91464C11.5392 7.01064 11.4776 6.97464 11.4169 6.94914C11.4008 6.92551 11.4019 6.90189 11.4184 6.87939Z" fill="#F1D616"/>
<path fill-rule="evenodd" clip-rule="evenodd" d="M11.4195 6.9386C11.4713 6.9311 11.5279 6.96072 11.5737 6.9146L11.6127 6.89697C11.6408 6.91085 11.6742 6.89922 11.7015 6.91535L11.6858 6.96372C11.6776 6.97468 11.6671 6.98366 11.655 6.98997C11.5819 7.00535 11.505 6.9791 11.4315 7.00535C11.4087 7.0031 11.3944 6.99072 11.3847 6.97085C11.3843 6.94797 11.3903 6.93035 11.4195 6.9386Z" fill="#72650B"/>
<path fill-rule="evenodd" clip-rule="evenodd" d="M11.9073 7.69537C11.9148 7.704 11.9223 7.713 11.9298 7.72312C11.9482 7.73925 11.9482 7.75762 11.9325 7.7775C11.9186 7.79251 11.9004 7.80288 11.8804 7.80717C11.8604 7.81147 11.8396 7.80949 11.8207 7.8015C11.8086 7.79587 11.7982 7.78706 11.7907 7.776C11.7888 7.72987 11.8233 7.70775 11.8533 7.683C11.8627 7.68033 11.8725 7.68007 11.8819 7.68224C11.8914 7.6844 11.9001 7.68892 11.9073 7.69537Z" fill="#D0BB17"/>
<path fill-rule="evenodd" clip-rule="evenodd" d="M11.3138 6.98699C11.2862 6.95799 11.2592 6.92849 11.2328 6.89849C11.2823 6.86399 11.3235 6.89324 11.3655 6.91087C11.3865 6.93224 11.3667 6.95399 11.364 6.97687C11.3579 6.98692 11.3497 6.9956 11.34 7.00237C11.3262 7.00462 11.3179 7.00087 11.3138 6.98699Z" fill="#A8A324"/>
<path fill-rule="evenodd" clip-rule="evenodd" d="M11.6925 7.7471C11.7063 7.74983 11.7205 7.74925 11.734 7.7454C11.7475 7.74156 11.7599 7.73455 11.7701 7.72498C11.7926 7.7336 11.7825 7.76173 11.7983 7.7756L11.7941 7.7816C11.8009 7.7876 11.8039 7.79398 11.8024 7.80148C11.8013 7.80935 11.7998 7.81235 11.7971 7.81235C11.7679 7.83598 11.7296 7.83148 11.6963 7.8401C11.6775 7.83335 11.6704 7.81723 11.6625 7.80185C11.6584 7.79323 11.6546 7.78423 11.6501 7.7756C11.655 7.7531 11.6666 7.73923 11.6925 7.7471Z" fill="#76690B"/>
<path fill-rule="evenodd" clip-rule="evenodd" d="M11.3138 6.98706C11.3217 6.99081 11.3296 6.99306 11.3374 6.99381C11.3464 7.00131 11.3517 7.00994 11.3539 7.02081C11.3524 7.03094 11.3471 7.04008 11.3389 7.04631C11.2879 7.04106 11.2808 7.08644 11.2572 7.11531C11.1237 7.00544 11.3071 7.03544 11.3138 6.98706Z" fill="#80730E"/>
<path fill-rule="evenodd" clip-rule="evenodd" d="M11.9322 7.77715L11.9296 7.72277C11.9772 7.7374 12.0154 7.70365 12.0582 7.69877C12.1039 7.69277 12.0987 7.7179 12.0758 7.74415L11.9322 7.77715Z" fill="#A19314"/>
<path fill-rule="evenodd" clip-rule="evenodd" d="M11.1443 8.17955L11.1525 8.12817C11.1975 8.20655 11.1675 8.29167 11.175 8.37192C11.1327 8.31342 11.1578 8.24292 11.1443 8.17955Z" fill="#3895D7"/>
<path fill-rule="evenodd" clip-rule="evenodd" d="M11.7 6.91496C11.6632 6.94346 11.6358 6.93033 11.6111 6.89658C11.706 6.85721 11.706 6.85721 11.7 6.91496Z" fill="#D9C014"/>
<path fill-rule="evenodd" clip-rule="evenodd" d="M11.0925 7.39918C11.0565 7.3568 11.0734 7.30318 11.0625 7.25555C11.0659 7.2308 11.0693 7.20568 11.0715 7.18018C11.1143 7.25068 11.0872 7.3268 11.0925 7.39918Z" fill="#4184CA"/>
<path fill-rule="evenodd" clip-rule="evenodd" d="M11.1218 7.70095C11.0757 7.6327 11.0982 7.55583 11.0978 7.4812C11.1443 7.55095 11.1128 7.62858 11.1218 7.70095Z" fill="#3997D9"/>
<path fill-rule="evenodd" clip-rule="evenodd" d="M11.6625 6.96713C11.6705 6.96667 11.6784 6.96542 11.6861 6.96338C11.6977 7.005 11.8339 6.98325 11.7461 7.077C11.7401 7.05713 11.7495 7.02788 11.7146 7.02488C11.697 7.02338 11.6794 7.02263 11.6625 7.02188C11.6475 7.00388 11.6452 6.9855 11.6625 6.96713Z" fill="#2F513F"/>
<path fill-rule="evenodd" clip-rule="evenodd" d="M12.015 6.95996C12.0353 6.97534 12.0386 6.99671 12.0368 7.01996C11.985 7.01134 11.9501 7.02296 11.9584 7.08596C11.8781 6.99784 11.9914 6.99934 12.015 6.95996Z" fill="#135568"/>
<path fill-rule="evenodd" clip-rule="evenodd" d="M11.5496 6.89252L11.4379 6.85877C11.5144 6.73877 11.5211 6.85202 11.5496 6.89252Z" fill="#BAA917"/>
<path fill-rule="evenodd" clip-rule="evenodd" d="M11.7979 7.77557C11.769 7.76882 11.7762 7.74332 11.7698 7.72495C11.7773 7.71482 11.7848 7.70507 11.7915 7.69495C11.8118 7.67957 11.8313 7.67882 11.8515 7.6957C11.8519 7.73545 11.8174 7.75007 11.7979 7.77557Z" fill="#EED316"/>
<path fill-rule="evenodd" clip-rule="evenodd" d="M11.6925 7.74718L11.6508 7.77568C11.6351 7.7528 11.5935 7.72655 11.6227 7.70255C11.6572 7.67555 11.6857 7.70405 11.6925 7.74718Z" fill="#908B1E"/>
<path fill-rule="evenodd" clip-rule="evenodd" d="M12.3938 7.04697C12.3953 7.03759 12.3987 7.02709 12.4005 7.01697C12.4763 7.01922 12.5037 7.04547 12.4504 7.11297C12.4311 7.09131 12.4123 7.06931 12.3938 7.04697Z" fill="#B9A411"/>
<path fill-rule="evenodd" clip-rule="evenodd" d="M11.8515 7.69577C11.8313 7.69577 11.8118 7.69577 11.7915 7.69502C11.8301 7.62977 11.8684 7.61215 11.9078 7.69502C11.8879 7.69577 11.8695 7.69577 11.8515 7.69577Z" fill="#B5A314"/>
<path fill-rule="evenodd" clip-rule="evenodd" d="M11.34 6.96265C11.3478 6.94503 11.3572 6.9274 11.3655 6.91053C11.3831 6.89965 11.4022 6.88915 11.4198 6.87903C11.4198 6.89965 11.421 6.9184 11.421 6.93828C11.4127 6.9469 11.4033 6.9544 11.3943 6.96303C11.376 6.97953 11.3572 6.98328 11.34 6.96265Z" fill="#878019"/>
<path fill-rule="evenodd" clip-rule="evenodd" d="M12.0337 7.31585C12.0135 7.33048 12.0142 7.3511 12.0221 7.37135C11.9692 7.36385 11.9805 7.3091 11.9542 7.2821C11.9808 7.29298 12.0168 7.28135 12.0337 7.31585Z" fill="#274C42"/>
<path fill-rule="evenodd" clip-rule="evenodd" d="M11.6625 7.80225L11.691 7.82925C11.6992 7.836 11.7015 7.84237 11.6985 7.84837C11.6943 7.85437 11.691 7.857 11.6887 7.857C11.6527 7.863 11.6178 7.86787 11.583 7.87387C11.5706 7.80712 11.6602 7.8525 11.6625 7.80225Z" fill="#3A431F"/>
<path fill-rule="evenodd" clip-rule="evenodd" d="M15.015 7.50751C14.9838 7.55364 14.9456 7.60576 14.9306 7.50526C14.919 7.42314 14.8672 7.39614 14.8053 7.37139C14.7945 7.28701 14.8856 7.36276 14.8972 7.31364C14.9145 7.30989 14.8845 7.30276 14.8935 7.31739C14.8987 7.32676 14.8972 7.32976 14.8867 7.32826C14.8593 7.32301 14.8091 7.35039 14.8252 7.28439C14.8376 7.26039 14.8852 7.26301 14.8743 7.22139C14.8575 7.15839 14.847 7.09839 14.9437 7.09839C14.9606 7.12126 14.9812 7.13139 15.0097 7.12539C15.0202 7.13245 15.0286 7.14232 15.0337 7.15389C15.0468 7.23076 15.0056 7.30989 15.0427 7.38676C15.0474 7.42899 15.0376 7.47157 15.015 7.50751Z" fill="#E4CB17"/>
<path fill-rule="evenodd" clip-rule="evenodd" d="M15.177 7.17749C15.2028 7.18837 15.2287 7.19962 15.2538 7.20974C15.2246 7.24912 15.2988 7.25062 15.2801 7.28587C15.2096 7.32262 15.2253 7.38637 15.2302 7.44787C15.2351 7.50262 15.2126 7.50787 15.1736 7.47637C15.126 7.44112 15.0836 7.40249 15.0742 7.34024C15.0742 7.31812 15.0776 7.28737 15.0978 7.28587C15.192 7.28062 15.0742 7.24424 15.1068 7.23224C15.1155 7.19512 15.1402 7.17749 15.177 7.17749Z" fill="#E2C815"/>
<path fill-rule="evenodd" clip-rule="evenodd" d="M15.177 7.17755C15.1567 7.19967 15.1372 7.22067 15.1177 7.2428C14.997 7.32117 15.0472 7.18917 15.0146 7.15917L15.0112 7.12617C15.0127 7.12242 15.0139 7.11755 15.0165 7.1153C15.0562 7.0853 15.0904 7.01555 15.138 7.03392C15.1852 7.05305 15.1736 7.12542 15.177 7.17755Z" fill="#D2BD18"/>
<path fill-rule="evenodd" clip-rule="evenodd" d="M15.015 7.50754C14.985 7.47154 15.0248 7.43366 15.0113 7.39616C15.0199 7.38899 15.03 7.38392 15.0409 7.38138C15.0517 7.37884 15.0631 7.3789 15.0739 7.38154C15.1163 7.40629 15.1197 7.43779 15.0915 7.47529C15.0657 7.48579 15.0405 7.49666 15.015 7.50754Z" fill="#F4D817"/>
<path fill-rule="evenodd" clip-rule="evenodd" d="M15.0938 7.47639C15.0945 7.44489 15.093 7.41414 15.0611 7.39576C15.0514 7.36576 15.0529 7.34214 15.0938 7.34439C15.129 7.38264 15.168 7.41901 15.1748 7.47639C15.162 7.48214 15.1482 7.48512 15.1343 7.48512C15.1203 7.48512 15.1065 7.48214 15.0938 7.47639Z" fill="#EFD416"/>
<path fill-rule="evenodd" clip-rule="evenodd" d="M14.8267 7.28516C14.8342 7.32753 14.8785 7.30916 14.9006 7.32903C14.8781 7.36428 14.8196 7.31891 14.8065 7.37216C14.7873 7.36916 14.7528 7.38078 14.7547 7.35378C14.7581 7.31816 14.7956 7.30203 14.8267 7.28516Z" fill="#A69411"/>
<path fill-rule="evenodd" clip-rule="evenodd" d="M14.9453 7.09909C14.8643 7.10697 14.8811 7.17072 14.8759 7.22209C14.8459 7.17447 14.8256 7.12234 14.8643 7.07622C14.88 7.05709 14.9235 7.07097 14.9453 7.09909Z" fill="#687E3D"/>
<path fill-rule="evenodd" clip-rule="evenodd" d="M15.2802 7.28592C15.2584 7.26454 15.2295 7.24767 15.2539 7.20979C15.2802 7.20904 15.3102 7.20904 15.3207 7.23604C15.3323 7.26604 15.3079 7.27992 15.2802 7.28592Z" fill="#D8C116"/>
<path fill-rule="evenodd" clip-rule="evenodd" d="M14.715 8.37112C14.7199 8.36324 14.7248 8.35649 14.73 8.34749C14.7105 8.29537 14.6708 8.30212 14.6288 8.31074C14.5395 8.31599 14.451 8.32087 14.3603 8.32687C14.3603 8.26312 14.4176 8.29912 14.4341 8.26237C14.3659 8.17462 14.2549 8.23162 14.1349 8.18474C14.2125 8.17012 14.2549 8.16262 14.2958 8.15399C14.2924 8.06099 14.1885 8.08349 14.1566 8.02087C14.241 7.96237 14.2894 7.97024 14.3745 8.04862C14.4776 8.14312 14.6295 8.19674 14.7803 8.20087C14.9546 8.20612 15.1013 8.30699 15.2693 8.33399C15.2933 8.33774 15.324 8.35612 15.315 8.38762C15.3053 8.42774 15.2685 8.42774 15.2385 8.41462C15.1699 8.38537 15.1035 8.35087 15.033 8.31637C15.0056 8.39174 15.0716 8.41237 15.093 8.45549C15.1073 8.48474 15.1549 8.53012 15.0956 8.55599C15.0263 8.58524 15.0731 8.51362 15.0551 8.49749C14.9873 8.44387 14.9168 8.39849 14.8256 8.39924C14.7844 8.40787 14.7356 8.44387 14.715 8.37112Z" fill="#040000"/>
<path fill-rule="evenodd" clip-rule="evenodd" d="M14.715 8.37116C14.7439 8.40941 14.7889 8.38954 14.8256 8.39966C14.7581 8.42329 14.691 8.45329 14.6257 8.38954C14.655 8.35954 14.6865 8.37341 14.715 8.37116Z" fill="#430000"/>
<path fill-rule="evenodd" clip-rule="evenodd" d="M14.6288 8.31005C14.6772 8.25455 14.7214 8.29693 14.7664 8.3153C14.7882 8.32468 14.7945 8.33368 14.7679 8.3423C14.7563 8.3468 14.7424 8.34605 14.7297 8.3468C14.6952 8.3348 14.6622 8.32243 14.6288 8.31005Z" fill="#E7E7E7"/>
<path fill-rule="evenodd" clip-rule="evenodd" d="M11.229 10.9913C11.229 10.5739 11.2316 10.1562 11.2267 9.7388C11.2256 9.6428 11.2459 9.60418 11.3516 9.60568C11.6846 9.61243 12.0161 9.61243 12.3487 9.60568C12.4549 9.60343 12.474 9.64393 12.4732 9.73843C12.4687 10.1566 12.4714 10.5743 12.4721 10.9917C12.4204 11.0453 12.3532 11.0464 12.2854 11.0464C11.9955 11.0487 11.706 11.0487 11.4157 11.0464C11.3486 11.0461 11.2811 11.0446 11.229 10.9913Z" fill="#FE0000"/>
<path fill-rule="evenodd" clip-rule="evenodd" d="M11.2289 10.9912H12.4721C12.4713 11.4131 12.4698 11.8357 12.4732 12.2576C12.4732 12.3427 12.4537 12.3742 12.3622 12.3735C12.0211 12.3682 11.6799 12.3682 11.3388 12.3735C11.2469 12.3742 11.2263 12.3427 11.2271 12.2576C11.2308 11.8357 11.2289 11.4131 11.2289 10.9912Z" fill="#FEFEFE"/>
<path fill-rule="evenodd" clip-rule="evenodd" d="M13.7423 13.7764C13.7416 14.1897 13.7374 14.6018 13.7423 15.0158C13.7442 15.1227 13.7224 15.1643 13.6051 15.1609C13.2826 15.1534 12.9578 15.1549 12.6353 15.1609C12.5348 15.1632 12.4932 15.1426 12.4951 15.0289C12.5026 14.6123 12.4984 14.1938 12.4992 13.7764C12.5528 13.7228 12.6211 13.7228 12.6886 13.7228C12.9773 13.7213 13.2649 13.7213 13.5537 13.7228C13.6208 13.7232 13.6894 13.7232 13.7423 13.7764Z" fill="#FE0000"/>
<path fill-rule="evenodd" clip-rule="evenodd" d="M12.4725 13.7764C12.4718 14.1904 12.4676 14.6048 12.4744 15.0192C12.4763 15.1343 12.4403 15.1606 12.33 15.1583C12.0103 15.1512 11.6905 15.1512 11.3708 15.1583C11.2616 15.1606 11.2241 15.1343 11.2256 15.0192C11.2335 14.6048 11.229 14.1901 11.229 13.7764C11.2826 13.7228 11.3509 13.7228 11.4184 13.7228C11.7071 13.7213 11.9948 13.7213 12.2835 13.7228C12.351 13.7232 12.4193 13.7232 12.4725 13.7764Z" fill="#FEFEFE"/>
<path fill-rule="evenodd" clip-rule="evenodd" d="M11.2024 13.7764C11.2024 14.1938 11.199 14.6116 11.2043 15.0289C11.205 15.1249 11.1852 15.1636 11.079 15.1609C10.7473 15.1542 10.4155 15.1542 10.0838 15.1609C9.97766 15.1639 9.95703 15.1257 9.95778 15.0289C9.96266 14.6123 9.95928 14.1946 9.95928 13.7764C10.0129 13.7228 10.0812 13.7228 10.1487 13.7228C10.4374 13.7213 10.7258 13.7213 11.0138 13.7228C11.0809 13.7232 11.1492 13.7232 11.2024 13.7764Z" fill="#FE0000"/>
<path fill-rule="evenodd" clip-rule="evenodd" d="M13.7422 13.7763H12.4991C12.4984 13.3545 12.501 12.9326 12.4969 12.5107C12.4957 12.4256 12.5167 12.393 12.6086 12.3941C12.9495 12.3986 13.2904 12.4001 13.632 12.3941C13.7235 12.3926 13.7426 12.4263 13.7426 12.5107C13.7392 12.9326 13.7419 13.3545 13.7422 13.7763Z" fill="#FEFEFE"/>
<path fill-rule="evenodd" clip-rule="evenodd" d="M12.4725 13.7764H11.2294C11.2294 13.3613 11.2339 12.948 11.226 12.5336C11.2245 12.4178 11.262 12.3915 11.3711 12.3945C11.691 12.4013 12.0109 12.4013 12.3304 12.3945C12.4395 12.3915 12.4766 12.4181 12.4747 12.5336C12.4676 12.948 12.4717 13.3613 12.4725 13.7764Z" fill="#FE0000"/>
<path fill-rule="evenodd" clip-rule="evenodd" d="M11.2024 13.7763H9.95927C9.95927 13.3545 9.96189 12.9326 9.95852 12.5107C9.95777 12.4263 9.97764 12.393 10.0695 12.3941C10.4104 12.4001 10.7516 12.3986 11.0929 12.3941C11.1844 12.3926 11.2046 12.4256 11.2039 12.5107C11.2001 12.9326 11.2024 13.3545 11.2024 13.7763Z" fill="#FEFEFE"/>
<path fill-rule="evenodd" clip-rule="evenodd" d="M9.92508 10.965H8.6977C8.69508 10.5424 8.69433 10.1198 8.68945 9.69713C8.68945 9.6255 8.71795 9.60413 8.78545 9.60488C9.13683 9.60713 9.48783 9.60713 9.83808 9.60488C9.90558 9.60413 9.93558 9.6255 9.93483 9.69713C9.9292 10.1198 9.92845 10.5424 9.92508 10.965Z" fill="#FE0000"/>
<path fill-rule="evenodd" clip-rule="evenodd" d="M8.66253 7.45572C8.67032 7.45278 8.67835 7.45052 8.68653 7.44897C8.71653 7.4726 8.75966 7.45347 8.78891 7.48122C8.79227 7.48951 8.79503 7.49804 8.79716 7.50672L8.79191 7.53072L8.69028 7.55697C8.67791 7.49697 8.62878 7.50635 8.58716 7.50222C8.61266 7.48722 8.63853 7.47185 8.66253 7.45572Z" fill="#9E8C0F"/>
<path fill-rule="evenodd" clip-rule="evenodd" d="M8.77197 7.42577C8.76934 7.3864 8.77122 7.3489 8.82297 7.3429C8.87022 7.38902 8.82709 7.4059 8.79634 7.42577C8.78734 7.4389 8.77872 7.43815 8.77159 7.42502L8.77197 7.42577Z" fill="#F4D917"/>
<path fill-rule="evenodd" clip-rule="evenodd" d="M8.77123 7.42496C8.7791 7.42571 8.78773 7.42571 8.79598 7.42571L8.79073 7.48121C8.75473 7.47671 8.7131 7.48721 8.68835 7.44896L8.69173 7.40283C8.7191 7.40733 8.72735 7.47896 8.77123 7.42496Z" fill="#AF9B10"/>
<path fill-rule="evenodd" clip-rule="evenodd" d="M13.1205 7.66872C13.131 7.60947 13.1805 7.59109 13.2262 7.56897C13.2679 7.67734 13.2079 7.75422 13.1479 7.83109H13.1205C13.0897 7.81047 13.0954 7.77897 13.0946 7.74897C13.0946 7.71934 13.1531 7.70922 13.1205 7.66872Z" fill="#EFD416"/>
<path fill-rule="evenodd" clip-rule="evenodd" d="M13.0946 7.74939C13.1231 7.76926 13.1205 7.80151 13.1205 7.83151C13.1055 7.85289 13.0826 7.85851 13.0669 7.83826C13.0391 7.79851 13.0691 7.77339 13.0946 7.74939Z" fill="#D1B914"/>
<path fill-rule="evenodd" clip-rule="evenodd" d="M13.0189 7.29228L12.987 7.30765C12.9832 7.29802 12.979 7.28852 12.9746 7.27915C12.9862 7.2754 12.9975 7.27165 13.0099 7.26978C13.011 7.26978 13.0147 7.28215 13.0189 7.29228Z" fill="#BAA511"/>
<path fill-rule="evenodd" clip-rule="evenodd" d="M13.5525 7.85623C13.4516 7.84235 13.4977 7.79548 13.5277 7.75085C13.5641 7.77935 13.5506 7.81985 13.5525 7.85623Z" fill="#CFB813"/>
<path fill-rule="evenodd" clip-rule="evenodd" d="M13.6088 7.69727C13.6493 7.73552 13.6298 7.78427 13.6343 7.82927C13.617 7.83302 13.5885 7.85927 13.5904 7.81614C13.5919 7.77564 13.602 7.73702 13.6088 7.69727Z" fill="#D0B813"/>
<path fill-rule="evenodd" clip-rule="evenodd" d="M13.2833 7.64246C13.3043 7.67321 13.3482 7.62483 13.365 7.66871C13.3643 7.67733 13.3643 7.68558 13.3643 7.69571C13.3332 7.68408 13.2657 7.72796 13.2833 7.64246Z" fill="#F4D817"/>
<path fill-rule="evenodd" clip-rule="evenodd" d="M13.0946 7.42578C13.1009 7.42757 13.1069 7.43049 13.1122 7.43441C13.1174 7.46741 13.1332 7.50116 13.1088 7.53491C13.0571 7.50341 13.0953 7.46216 13.0946 7.42578Z" fill="#F1D617"/>
<path fill-rule="evenodd" clip-rule="evenodd" d="M12.1758 7.37134C12.1668 7.34434 12.1106 7.33759 12.1372 7.29747C12.1601 7.26297 12.2032 7.27609 12.2366 7.27384C12.2602 7.27309 12.2763 7.29747 12.2718 7.32222C12.2602 7.37509 12.216 7.37059 12.1751 7.37059L12.1758 7.37134Z" fill="#BEA812"/>
<path fill-rule="evenodd" clip-rule="evenodd" d="M12.3124 7.15507C12.3093 7.16339 12.3033 7.17033 12.2956 7.17465C12.2878 7.17898 12.2788 7.18041 12.27 7.17869C12.2509 7.17569 12.234 7.16332 12.2475 7.14494C12.255 7.13407 12.2783 7.13032 12.294 7.12957C12.3075 7.12882 12.3203 7.13669 12.3124 7.15507Z" fill="#907F0E"/>
<path fill-rule="evenodd" clip-rule="evenodd" d="M11.829 8.02279C11.7761 8.02879 11.7514 8.00067 11.7506 7.96579C11.7495 7.91029 11.8103 7.91967 11.8403 7.90729C11.8819 7.89042 11.919 7.94104 11.9231 7.97179C11.9363 8.07041 11.8253 7.94066 11.829 8.02279Z" fill="#AF9B10"/>
<path fill-rule="evenodd" clip-rule="evenodd" d="M11.6887 7.85701L11.6913 7.82926L11.7915 7.80451C11.8391 7.81126 11.8856 7.76851 11.9325 7.80526C11.9598 7.82289 11.9872 7.84126 12.0142 7.86001L11.6887 7.85701Z" fill="#6F630B"/>
<path fill-rule="evenodd" clip-rule="evenodd" d="M11.6625 6.96715V7.0219C11.5542 7.03053 11.4458 7.03878 11.3374 7.0459C11.3386 7.0362 11.3393 7.02643 11.3393 7.01665C11.364 7.00203 11.385 6.97203 11.4203 6.99265C11.4975 6.94803 11.5819 6.9739 11.6625 6.96715Z" fill="#8C7C0D"/>
<path fill-rule="evenodd" clip-rule="evenodd" d="M11.4968 7.3965C11.4808 7.38771 11.4647 7.3792 11.4484 7.371C11.4319 7.3365 11.4008 7.29412 11.4653 7.28175C11.4934 7.27575 11.5358 7.2495 11.5602 7.29112C11.5996 7.359 11.5178 7.3605 11.4968 7.3965Z" fill="#B7A211"/>
<path fill-rule="evenodd" clip-rule="evenodd" d="M11.4458 7.1032C11.4926 7.0717 11.5343 7.07695 11.5684 7.12458C11.5459 7.17295 11.5016 7.14858 11.4675 7.15458C11.4454 7.1632 11.4383 7.15008 11.4323 7.1317C11.433 7.12085 11.4378 7.11068 11.4458 7.1032Z" fill="#B4A011"/>
<path fill-rule="evenodd" clip-rule="evenodd" d="M11.4458 7.10326V7.13101C11.4274 7.14563 11.409 7.14338 11.3925 7.12876C11.3723 7.11488 11.379 7.10026 11.394 7.08938C11.4158 7.07476 11.4334 7.08226 11.4458 7.10326Z" fill="#CFB813"/>
<path fill-rule="evenodd" clip-rule="evenodd" d="M11.3928 7.12878L11.4461 7.13103C11.4532 7.13891 11.4603 7.14716 11.4682 7.15466C11.4209 7.20791 11.4044 7.17716 11.3928 7.12878Z" fill="#86770C"/>
<path fill-rule="evenodd" clip-rule="evenodd" d="M11.9321 7.80486C11.8853 7.78086 11.8388 7.86111 11.7911 7.80411C11.7941 7.79688 11.795 7.78895 11.7938 7.78123L11.9321 7.77673V7.80486Z" fill="#A4910F"/>
<path fill-rule="evenodd" clip-rule="evenodd" d="M11.4203 6.99266C11.3936 7.00144 11.3665 7.00945 11.3393 7.01666C11.3386 7.00916 11.3367 7.00203 11.3359 6.99303L11.3386 6.96228L11.3929 6.96303C11.4019 6.97391 11.4113 6.98328 11.4203 6.99266Z" fill="#B4A011"/>
<path fill-rule="evenodd" clip-rule="evenodd" d="M15.0938 7.34443L15.0612 7.3958C15.0454 7.39655 15.0297 7.3973 15.0136 7.3973C14.9562 7.31818 14.9937 7.23905 15.0154 7.15918C15.0507 7.18543 15.0346 7.2758 15.1186 7.2428C15.1414 7.26268 15.2164 7.28181 15.1163 7.29906C15.1062 7.30206 15.1017 7.32905 15.0938 7.34443Z" fill="#A28F0F"/>
</svg>
