<svg width="24" height="24" viewBox="0 0 24 24" fill="none" xmlns="http://www.w3.org/2000/svg">
<path d="M12.0002 2.24707C9.62568 2.24702 7.32858 3.09195 5.52001 4.63068C3.71145 6.1694 2.50945 8.30149 2.12912 10.6454C1.7488 12.9893 2.21496 15.3921 3.44419 17.4237C4.67342 19.4554 6.58549 20.9833 8.83825 21.7341C9.33825 21.8221 9.52525 21.5221 9.52525 21.2591C9.52525 21.0221 9.51325 20.2341 9.51325 19.3971C7.00025 19.8591 6.35025 18.7841 6.15025 18.2221C5.92839 17.6748 5.57658 17.1898 5.12525 16.8091C4.77525 16.6221 4.27525 16.1591 5.11225 16.1471C5.43213 16.1817 5.73894 16.2929 6.00668 16.4714C6.27442 16.6498 6.49518 16.8902 6.65025 17.1721C6.78698 17.4177 6.97084 17.634 7.19131 17.8085C7.41178 17.983 7.66451 18.1123 7.93503 18.1889C8.20554 18.2656 8.48853 18.2881 8.76775 18.2551C9.04698 18.2222 9.31697 18.1345 9.56225 17.9971C9.60556 17.4884 9.83231 17.0129 10.2002 16.6591C7.97524 16.4091 5.65025 15.5471 5.65025 11.7221C5.63608 10.728 6.00282 9.76628 6.67525 9.03407C6.36956 8.17029 6.40533 7.22236 6.77525 6.38407C6.77525 6.38407 7.61225 6.12207 9.52525 7.40907C11.1615 6.95902 12.889 6.95902 14.5252 7.40907C16.4372 6.10907 17.2752 6.38407 17.2752 6.38407C17.6453 7.22234 17.681 8.1703 17.3752 9.03407C18.0497 9.76502 18.4168 10.7276 18.4002 11.7221C18.4002 15.5591 16.0622 16.4091 13.8372 16.6591C14.0759 16.901 14.2597 17.1914 14.3762 17.5106C14.4926 17.8298 14.5391 18.1703 14.5122 18.5091C14.5122 19.8471 14.5002 20.9221 14.5002 21.2591C14.5002 21.5221 14.6872 21.8341 15.1872 21.7341C17.4359 20.977 19.3422 19.4455 20.5661 17.4128C21.7899 15.3802 22.2516 12.9788 21.8686 10.6373C21.4857 8.29573 20.2831 6.1665 18.4755 4.62965C16.6678 3.0928 14.3729 2.24836 12.0002 2.24707Z" fill="white"/>
</svg>
