<svg width="32" height="32" viewBox="0 0 32 32" fill="none" xmlns="http://www.w3.org/2000/svg">
<path d="M10 8C9.46957 8 8.96086 8.21071 8.58579 8.58579C8.21071 8.96086 8 9.46957 8 10V13C8 13.5304 8.21071 14.0391 8.58579 14.4142C8.96086 14.7893 9.46957 15 10 15H13C13.5304 15 14.0391 14.7893 14.4142 14.4142C14.7893 14.0391 15 13.5304 15 13V10C15 9.46957 14.7893 8.96086 14.4142 8.58579C14.0391 8.21071 13.5304 8 13 8H10ZM10 17C9.46957 17 8.96086 17.2107 8.58579 17.5858C8.21071 17.9609 8 18.4696 8 19V22C8 22.5304 8.21071 23.0391 8.58579 23.4142C8.96086 23.7893 9.46957 24 10 24H13C13.5304 24 14.0391 23.7893 14.4142 23.4142C14.7893 23.0391 15 22.5304 15 22V19C15 18.4696 14.7893 17.9609 14.4142 17.5858C14.0391 17.2107 13.5304 17 13 17H10ZM19 8C18.4696 8 17.9609 8.21071 17.5858 8.58579C17.2107 8.96086 17 9.46957 17 10V13C17 13.5304 17.2107 14.0391 17.5858 14.4142C17.9609 14.7893 18.4696 15 19 15H22C22.5304 15 23.0391 14.7893 23.4142 14.4142C23.7893 14.0391 24 13.5304 24 13V10C24 9.46957 23.7893 8.96086 23.4142 8.58579C23.0391 8.21071 22.5304 8 22 8H19ZM19 17C18.4696 17 17.9609 17.2107 17.5858 17.5858C17.2107 17.9609 17 18.4696 17 19V22C17 22.5304 17.2107 23.0391 17.5858 23.4142C17.9609 23.7893 18.4696 24 19 24H22C22.5304 24 23.0391 23.7893 23.4142 23.4142C23.7893 23.0391 24 22.5304 24 22V19C24 18.4696 23.7893 17.9609 23.4142 17.5858C23.0391 17.2107 22.5304 17 22 17H19ZM4 9C4 7.67392 4.52678 6.40215 5.46447 5.46447C6.40215 4.52678 7.67392 4 9 4H23C24.3261 4 25.5979 4.52678 26.5355 5.46447C27.4732 6.40215 28 7.67392 28 9V23C28 24.3261 27.4732 25.5979 26.5355 26.5355C25.5979 27.4732 24.3261 28 23 28H9C7.67392 28 6.40215 27.4732 5.46447 26.5355C4.52678 25.5979 4 24.3261 4 23V9ZM9 6C8.20435 6 7.44129 6.31607 6.87868 6.87868C6.31607 7.44129 6 8.20435 6 9V23C6 23.7956 6.31607 24.5587 6.87868 25.1213C7.44129 25.6839 8.20435 26 9 26H23C23.7956 26 24.5587 25.6839 25.1213 25.1213C25.6839 24.5587 26 23.7956 26 23V9C26 8.20435 25.6839 7.44129 25.1213 6.87868C24.5587 6.31607 23.7956 6 23 6H9Z" fill="white"/>
</svg>
