<svg width="11" height="11" viewBox="0 0 11 11" fill="none" xmlns="http://www.w3.org/2000/svg">
<path d="M1.83366 9.16659C1.58158 9.16659 1.3657 9.07675 1.18603 8.89709C1.00637 8.71742 0.916687 8.5017 0.916993 8.24992V2.74992C0.916993 2.49784 1.00683 2.28196 1.18649 2.10229C1.36616 1.92263 1.58188 1.83295 1.83366 1.83325H9.16699C9.41908 1.83325 9.63495 1.92309 9.81462 2.10275C9.99428 2.28242 10.084 2.49814 10.0837 2.74992V8.24992C10.0837 8.502 9.99383 8.71788 9.81416 8.89754C9.63449 9.07721 9.41877 9.16689 9.16699 9.16659H1.83366ZM5.50033 5.95825L9.16699 3.66659V2.74992L5.50033 5.04159L1.83366 2.74992V3.66659L5.50033 5.95825Z" fill="white"/>
</svg>
