<svg width="41" height="40" viewBox="0 0 41 40" fill="none" xmlns="http://www.w3.org/2000/svg">
<path fill-rule="evenodd" clip-rule="evenodd" d="M26.4283 18.8217C26.7408 19.1342 26.9163 19.5581 26.9163 20C26.9163 20.4419 26.7408 20.8658 26.4283 21.1783L17 30.6067C16.8463 30.7658 16.6623 30.8928 16.459 30.9802C16.2557 31.0675 16.037 31.1135 15.8157 31.1154C15.5944 31.1173 15.3749 31.0752 15.1701 30.9914C14.9653 30.9076 14.7792 30.7838 14.6227 30.6273C14.4662 30.4708 14.3424 30.2847 14.2586 30.0799C14.1748 29.8751 14.1327 29.6556 14.1346 29.4343C14.1365 29.213 14.1825 28.9943 14.2698 28.791C14.3572 28.5876 14.4842 28.4037 14.6433 28.25L22.8933 20L14.6433 11.75C14.3397 11.4357 14.1717 11.0147 14.1755 10.5777C14.1793 10.1407 14.3546 9.72264 14.6636 9.41363C14.9727 9.10462 15.3907 8.92934 15.8277 8.92554C16.2647 8.92174 16.6857 9.08973 17 9.39333L26.4283 18.8217Z" fill="#575F68"/>
</svg>
