<svg width="11" height="11" viewBox="0 0 11 11" fill="none" xmlns="http://www.w3.org/2000/svg">
<path d="M8.8134 6.99422L7.64924 6.86131C7.51235 6.84523 7.3736 6.86038 7.24341 6.90563C7.11322 6.95088 6.99498 7.02505 6.89757 7.12256L6.05424 7.96589C4.75311 7.30416 3.69555 6.24659 3.03382 4.94547L3.88174 4.09756C4.07882 3.90047 4.17507 3.62547 4.14299 3.34589L4.01007 2.19089C3.98408 1.9673 3.87678 1.76108 3.70859 1.61149C3.54041 1.46189 3.32308 1.37937 3.09799 1.37964H2.30507C1.78715 1.37964 1.35632 1.81047 1.3884 2.32839C1.63132 6.24256 4.76174 9.36839 8.67132 9.61131C9.18924 9.64339 9.62007 9.21256 9.62007 8.69464V7.90172C9.62465 7.43881 9.27632 7.04922 8.8134 6.99422Z" fill="white"/>
</svg>
